<?xml version="1.0" standalone="yes"?>
<svg xmlns="http://www.w3.org/2000/svg" width="507" height="338">
<path style="fill:#b9906d; stroke:none;" d="M0 0C0.0277622 3.10526 0.0229263 6.15161 1.45679 8.99924C12.1007 30.1379 33.6281 11.2643 48 10L47 17C52.2965 14.7949 58.1248 12.3661 61.5934 7.56018C63.1331 5.42676 64.6411 1.11365 60.7708 0.425934C57.1821 -0.211761 53.2444 3.10486 50 4.23996C33.9984 9.83829 10.3305 25.2717 3 0L0 0z"/>
<path style="fill:#c7b7a2; stroke:none;" d="M3 0C8.73259 27.4074 42.7517 8.7908 58 1L40 0L3 0z"/>
<path style="fill:#9e5a5a; stroke:none;" d="M63 0L67 3L63 0z"/>
<path style="fill:#675652; stroke:none;" d="M67 0L67 3C77.234 3.00674 87.3325 11.183 94 0L67 0z"/>
<path style="fill:#9e5a5a; stroke:none;" d="M84 7C88.1261 13.7255 97.2846 9.08356 104 9.88501C111.24 10.7491 119.064 19.5613 125.09 19.2631C129.119 19.0637 132.711 14.4576 136 12.4792C141.421 9.21802 147.76 8.12881 154 8C152.851 4.21365 151.176 1.17255 146.985 0.278534C133.966 -2.49796 109.02 -2.83597 96.0895 0.303223C91.5301 1.4101 88.6487 5.73282 84 7z"/>
<path style="fill:#b9906d; stroke:none;" d="M149 0L149 1L154 8C147.82 8.05115 141.496 8.87766 136 11.9051C132.697 13.7247 128.962 18.4707 125.09 18.6945C121.22 18.918 116.624 13.2334 113 11.7647C105.041 8.53864 89.6309 7.89276 82 12L105 13.1744L124 22.5347L141 13.108L168 13C168 -1.70914 162.006 0 149 0z"/>
<path style="fill:#c7b7a2; stroke:none;" d="M167 0L168 13L140 13.108L125 22.0803L110 13.9923L80 12L60.0394 24.1343L50 28C51.7685 34.0858 50.3635 40.6498 56.3287 44.9915C60.9518 48.3564 67.461 46.6233 71.4429 51.1481C77.7633 58.3305 86.045 71.1991 97.0039 71.8912C106.794 72.5095 115.501 62.7383 124 63.4143C127.297 63.6766 129.79 66.7812 133 67.5563C139.19 69.051 148.662 68.5846 155 67.8156C163.128 66.8294 173.049 55.1634 180 56.8619C185.215 58.1361 196.562 61.3195 200.671 64.5887C206.428 69.1687 209 78.8115 213.54 84.6752C224.424 98.7315 244.321 100.129 258.996 91.662C270.386 85.0909 276.691 69.7173 272.957 57C271.113 50.7224 266.573 46.0324 264.421 40C260.684 29.5263 260.853 20.0388 250.985 12.5579C240.738 4.789 230.149 9.96085 219.004 8.6821C213.493 8.04987 211.903 1.90723 206.91 0.433655C195.421 -2.95682 178.985 0 167 0z"/>
<path style="fill:#b9906d; stroke:none;" d="M208 0L208 1C210.868 3.535 213.169 7.50195 217.039 8.5625C226.923 11.2707 236.849 5.3476 247 10.6736C259.141 17.044 260.635 28.3784 264.108 40C266.35 47.5038 272.37 52.9596 273.674 61C274.976 69.0287 270.688 75.5497 269 83L275 84L276 81C289.122 84.5758 296.717 91.1438 302 104C312.971 103.913 318.659 112.117 326.184 118.444C329.823 121.503 333.549 122.109 335 127L336 127L336 125L337 125L339 137L335 137C336.532 139.72 337.797 145.224 341 143L343 150L347 148L344 144L344 143L350 151L346 151L341 157L344 159L353 156L354 156L350 153L353 152L353 147L354 147L357 151L357 152L355 154L360 154L361 151L361 150L355 150L356 143L361 141L358 145L367 149L367 148L362 140L374 142L374 137L376 141L382 140L382 139L380 140L380 139L393 134L394 134L395 138L398 136C399.972 138.91 400.842 135.089 401 133L389 131L389 132L391 134L385 134L384 129L385 129L385 132L392 129L392 128L388 128L388 125L393 125L394 130L395 130C392.063 115.765 395.093 107.569 398 94C374.101 93.7995 356.392 67.662 370.133 46C378.026 33.5585 395.443 29.9254 409 27.304C428.349 23.5629 444.483 37.4685 444.985 57C445.162 63.8545 440.385 72.7623 441.773 79C443.179 85.3181 449.8 90.9942 452.198 97.2855C457.25 110.541 454.831 132.21 443 141C445.191 147.8 449.79 148.709 456 151L456 161L465 162L465 159L480 154L481 157L485 152L507 148L507 128C467.202 129.889 470.077 67.3301 507 67L507 57L503 55L503 58L476 71L473 66L472 66C448.552 71.7921 447.303 38.1165 433.996 28.8033C419.404 18.5903 406.689 28.6546 392 29C400.613 20.3856 405.431 12.4411 406 0L396 0L390.777 15.7724L379 25C361.529 22.0438 341.915 30.3936 326 21.1234C317.034 15.9012 316.303 4.59845 309 0L316 19L309 12L306 14L303 9L303 1L271 0L208 0z"/>
<path style="fill:#9e5a5a; stroke:none;" d="M302 0L303 9L306 14L309 12L316 19L309 0L302 0z"/>
<path style="fill:#c7b7a2; stroke:none;" d="M311 0C315.262 15.0117 325.35 25.9923 342 25.9923C347.556 25.9923 352.607 23.1855 358 23.2091C364.664 23.2382 372.094 24.6387 379 25L391.657 15.787L396 0L311 0z"/>
<path style="fill:#9e5a5a; stroke:none;" d="M406 0C404.874 12.9123 399.091 18.9333 392 29C405.956 28.8752 416.717 19.7367 431 27.5579C445.905 35.7198 443.106 53.6698 456.83 61.5548C461.062 63.9861 467.337 68.7419 472 66L473 66L476 71C484.039 69.2784 500.442 63.6409 503 55L507 57L507 50L503 50L503 49L507 49L507 29L500 29L487.961 26.6057L472 18L472 20C468.853 17.3771 455.733 17.4223 451 19C448.13 19.9568 447.87 23.0432 445 24C440.455 25.5149 434.992 19.9959 433 19C429.633 17.3165 425.134 18.4648 426 15L422 16L423 12L420 8L413.667 0.5L406 0z"/>
<path style="fill:#708bac; stroke:none;" d="M414 0C414.786 3.21375 416.493 8.08401 420 8L423 12L422 16L426 15C426.529 18.8894 432.271 19.3467 435.569 20.8426C445.44 25.3188 457.577 19.3563 469 18L469 17L468 15L465 15L466 17L459 13L456 5L456 9L445.829 0.702942L414 0z"/>
<path style="fill:#b9906d; stroke:none;" d="M446 0L446 1L456 9L456 5L459 13L462 12L466 17L468 15L472 20L472 18L500 29L507 29L507 0L446 0z"/>
<path style="fill:#708bac; stroke:none;" d="M45 32L51 33L52 32L50 28L52 30L69.9105 20.713L85 11C82.8992 3.90356 71.0136 0.095459 64.5177 4.01312C53.0771 10.913 45 18.5176 45 32z"/>
<path style="fill:#9e5a5a; stroke:none;" d="M0 7C3.17028 28.6958 31.5785 18.1096 45 18C42.6709 29.248 34.9687 31.9784 25 36L27 48L29 59C20.2729 62.3676 8.01931 68.2265 3.56867 77.0903C-1.38458 86.955 3.58875 108.372 14.0401 113.192C22.6875 117.181 35.5671 114.143 44 111L48 119L47 124L49 123L49 124L46 135L43 134L41 136L41 140L45 144L52 144L52 145L50 145L50 146L55 147L62 131L66 126C75.7305 125.65 85.3101 125.93 95 125.028C98.58 124.694 101.764 125.153 102 129L105 128L105 132L106 132C107.837 110.955 122.796 111.238 137 102.276C144.498 97.5452 149.632 90.6745 159 89.3403C172.038 87.4834 183.034 100.479 181.823 113C181.096 120.504 174.447 133.612 167.945 137.633C159.55 142.827 149.076 143.003 144 153C149.709 155.393 154.244 160.105 160 162.181C174.724 167.492 189.062 163.791 194.946 183C202.091 206.325 171.42 231.149 152 213C133.084 217.516 110.153 211.004 104.456 189.83C101.788 179.913 104.558 172.678 105 163L121 154L121 152L112 145L111 145L112 150L105 148C99.7871 148.878 98.429 149.849 97 155L99 160L80 160L79 160L72 154L72 160L75 164L70 165L76 173L72 173L74 179L67 176L69 181L72 184L80 184L80 185C76.6543 185.002 72.4847 184.143 72 188C61.3067 188.712 46.4923 205.268 43.1088 215C40.1616 223.477 46.2812 233.855 34 234L34 235C37.8235 234.997 44.3266 235.798 46.9722 232.297C48.7902 229.891 47.8855 225.816 48.8002 223C51.1081 215.896 56.5478 210.196 63.0008 206.519C79.8003 196.945 101.891 214.761 99 233L139 234L204 235L204 234C198.188 234 190.198 235.799 187 230C199.139 226.574 206 204.927 206 194L204 197C201.243 193.337 202.483 190.503 205 187L205 191L206 191C205.95 173.012 196.112 167.209 186 154L179 152C180.345 142.755 185.843 144.815 193.7 143.75C205.872 142.101 215.449 138.351 225 149L246 144L243 137L264 146C264.742 149.764 270.734 154.906 272 149L280 154L294 153L297.858 138.499L307 133L308 133C314.381 137.803 331.042 136.963 339 137L337 125L336 125L336 127L335 127C334.115 121.574 329.912 121.04 326.184 117.664C319.355 111.478 312.414 102.586 302 104C298.336 91.1873 289.184 82.7695 276 81L264.75 97.9167L256 104L253 103L248 107L251 105L251 104C245.08 104.61 242.132 108.469 236.91 110.438C230.066 113.018 223.286 110.776 217 108C211.833 109.851 205.447 104.582 201.576 101.384C193.391 94.6231 192.74 88.8136 187.574 80.4244C183.995 74.6123 178.273 68.9065 177 62L158 69.8411L139 71L139 72L151 73L152 80L150 80L151 82C146.518 83.3285 141.484 85.979 140 80C135.949 83.4818 135.216 90.6977 130.957 94.9568C117.396 108.517 107.192 97.8682 92 99L92 98L95 98L86 81L82 83L80 78L80 77L83 75L83 80C86.3992 79.2716 88.3259 71.2742 85.5 68.6945C80.1661 63.8253 69.4927 70.3354 63 66.5278C53.4417 60.9224 44.8009 36.7487 45 26C45.1037 20.4 47.9761 15.6782 48 10C33.4173 10.668 23.0675 24.957 8.00386 15.1813C4.72386 13.0528 2.57105 9.84921 0 7z"/>
<path style="fill:#b9906d; stroke:none;" d="M451 7L452 8L451 7M454 9L456 11L454 9z"/>
<path style="fill:#675652; stroke:none;" d="M0 11L0 180L0 216C0 219.51 -1.29134 226.34 1.02778 229.262C3.34108 232.176 12.4364 233.294 16 233.791C21.0698 234.497 37.3571 236.376 41.3573 232.972C44.2002 230.553 41.6974 220.778 42.7894 217C45.7076 206.903 61.2696 189.375 72 188C72.5054 184.133 76.7663 185 80 185L80 184L72 184L69 181L67 176L74 179L72 173L76 173L70 165L75 164L72 160L62 145L59 145L60 143L59 142L56 143L55 147L50 146L50 145L52 145L52 144L45 144L41 140L41 136L43 134L46 135L49 123L47 124L47 123L48 119L44 111C35.2024 113.352 25.1368 116.407 16.0039 113.508C4.67149 109.91 -1.34085 88.1122 3.56867 78.0394C8.14199 68.6564 20.3877 63.5438 29 59L27 48C29.7338 44.8476 26.5536 39.341 25 36C35.2947 32.9934 43.4762 29.3064 45 18C25.8957 18.04 16.6173 23.9937 0 11z"/>
<path style="fill:#9e5a5a; stroke:none;" d="M316 20L317 21L316 20z"/>
<path style="fill:#c7b7a2; stroke:none;" d="M398 94C395.136 102.537 385.476 131.214 401 133L401 138C408.852 135.823 425.636 140.312 423 151L428 151C434.138 146.999 440.574 145.293 445.826 139.7C455.329 129.581 456.489 110.097 452.508 97.2855C450.446 90.6477 442.975 84.5729 442.106 78C441.19 71.0581 445.326 62.5298 444.96 55C444.053 36.3701 429.186 24.5535 411 26.794C397.718 28.4304 377.711 33.0947 370.133 45.0008C355.927 67.3233 373.272 93.9318 398 94z"/>
<path style="fill:#b9906d; stroke:none;" d="M49 29L48 31L49 29M46 31C46.2248 40.5629 54.1966 63.7226 64.0039 67.2724C71.648 70.0392 82.0429 63.8409 87 72L91 71C88.6055 64.5761 81.5569 63.8297 77.2238 58.956C74.5171 55.9117 73.4093 51.1902 69.8117 49.0131C61.8523 44.1965 50.9924 46.0772 51 33L46 31M50 31L51 32L50 31M503 49L503 50L507 50L503 49M135 68L135 69C151.285 74.572 162.275 67.1115 177 62C177.609 69.3522 183.894 75.2206 187.574 81.2855C192.695 89.7263 193.366 95.3743 201.576 102.115C205.378 105.236 212.298 110.833 217 108L220 110L221 101C218.606 98.1025 219.588 96.2733 221 93L224 95L213.54 83.8156L200.671 63.9884L188 59.8426L178 56.2809L160 66.3002L135 68z"/>
<path style="fill:#708bac; stroke:none;" d="M122 63.0563C113.912 65.2494 107.92 71.2221 99 71.787C95.5607 72.0049 89.6378 69.5247 87.0278 72.7423C78.5858 83.1493 95.5407 102.453 107 99.3927C114.043 97.5121 133.143 92.7561 136.864 86.544C142.638 76.9054 134.596 59.6407 122 63.0563z"/>
<path style="fill:#c7b7a2; stroke:none;" d="M507 128L507 67C469.165 67.1085 467.492 133.638 507 128z"/>
<path style="fill:#675652; stroke:none;" d="M139 72C139.002 75.022 138.153 80.2827 139.958 82.9028C142.579 86.7073 149.562 83.5579 150 80L152 80L151 73L139 72M82 75L80 77L80 78L82 83L86 81L86 80L82 75z"/>
<path style="fill:#708bac; stroke:none;" d="M224 95L222 95L221 93C219.279 96.0547 217.957 98.5673 221 101C220.389 107.341 226.046 117.428 232 109L233 109C236.854 114.218 245.724 104.952 251 104L251 105L248 107L253 103L256 104C262.402 99.8502 267.083 96.6427 271.501 90C272.698 88.1997 275.131 82.6408 270.852 82.7515C267.28 82.8439 264.482 87.074 261.91 89.0733C257.41 92.5721 251.584 95.291 246 96.4823C240.365 97.6844 227.332 92.402 224 95z"/>
<path style="fill:#c7b7a2; stroke:none;" d="M198 91C202.454 90.663 204.73 89.377 206 85C200.513 84.0454 197.31 84.8183 198 91z"/>
<path style="fill:#675652; stroke:none;" d="M81 85L81 88L82 88L81 85M85 86L86 87L85 86z"/>
<path style="fill:#b9906d; stroke:none;" d="M134 88C126.04 98.0655 112.554 98.1826 101 100L101 101C114.331 103.75 130.674 103.667 136 88L134 88M106 132L105 132L105 128L102 129L103 126L83 126L85 128L86 132L86 133L82 133L88 135C88.7827 138.939 92.1706 142.707 96 144C96.8756 149.052 100.598 149.227 105 148L112 150L111 145L112 145L121 152L121 154L114 158L114 160C120.731 163.189 125.677 155.712 133 155C143.397 153.989 156.881 162.999 162.667 171C171.017 182.549 165.176 201.576 153 207.833C147.347 210.739 141.879 209.641 136.167 210.667C134.065 211.044 137.222 212.097 137 212L137 213L132 213L132 214L152 213C165.432 231.96 193.701 210.824 195.805 193.961C197.432 180.913 190.705 168.886 178 164.888C172.443 163.14 166.326 164.102 161 162.181C154.826 159.955 150.459 154.865 144 153C151.617 143.069 166.97 142.764 172.938 132.957C175.828 128.206 179.512 123.401 181.061 118C185.242 103.416 174.955 87.4422 159 89.1883C149.132 90.2682 143.826 97.3384 136 102.276C121.947 111.144 106.965 110.872 106 132z"/>
<path style="fill:#675652; stroke:none;" d="M80 90L80 92L82 90L80 90z"/>
<path style="fill:#c7b7a2; stroke:none;" d="M110 98C116.62 99.728 124.85 97.3058 128 91L110 98z"/>
<path style="fill:#675652; stroke:none;" d="M89 93L90 94L89 93M90 95L91 96L90 95M83 96L84 97L83 96M88 97L88 100L89 100L88 97M92 98L92 99L96 99L92 98z"/>
<path style="fill:#c7b7a2; stroke:none;" d="M132 119L129 118L128 121L122 119C122 121.685 118.321 122.769 117.333 126C114.392 135.626 124.28 136.434 128 141C132.993 140.018 137.94 137.558 143 137.214C147.17 136.93 150.938 138.583 155 136.875C159.912 134.81 167.261 131.695 169.772 126.675C173.872 118.475 169.197 99.8588 158.999 98.3804C152.843 97.488 143.755 102.878 139.13 106.637C135.395 109.673 133.709 114.657 132 119z"/>
<path style="fill:#708bac; stroke:none;" d="M216 98L218 100L218 98L216 98z"/>
<path style="fill:#675652; stroke:none;" d="M96 101L97 102L96 101M271 101L273 103L271 101M91.6667 102.333L92.3333 102.667L91.6667 102.333M94 103L95 104L94 103z"/>
<path style="fill:#b9906d; stroke:none;" d="M224 103L223 105L224 103z"/>
<path style="fill:#675652; stroke:none;" d="M270 104L272 106L272 104L270 104z"/>
<path style="fill:#9e5a5a; stroke:none;" d="M214 108L215 109L214 108z"/>
<path style="fill:#b9906d; stroke:none;" d="M232.333 109.667L232.667 110.333L232.333 109.667z"/>
<path style="fill:#675652; stroke:none;" d="M39 111L40 112L39 111z"/>
<path style="fill:#708bac; stroke:none;" d="M235 113L236 114L235 113z"/>
<path style="fill:#c7b7a2; stroke:none;" d="M126 119L127 120L126 119z"/>
<path style="fill:#b9906d; stroke:none;" d="M100 124L101 125L100 124z"/>
<path style="fill:#708bac; stroke:none;" d="M66 126L62 131L59 145L60 146L62 145C63.4802 154.341 73.5256 153.983 79 160L80 160L99 160L97 155L96 144L88 135L82 133L86 133L86 132L85 128L66 126M388 125L388 128L392 128L392 129L385 129L384 129L385 134L391 134L389 132L389 131L395 131L393 125L388 125M384 127L384 128L388 129L388 128L384 127z"/>
<path style="fill:#b9906d; stroke:none;" d="M240.333 132.667L240.667 133.333L240.333 132.667M250 132L251 133L250 132z"/>
<path style="fill:#708bac; stroke:none;" d="M392 132L393 133L392 132z"/>
<path style="fill:#b9906d; stroke:none;" d="M306 135L309 135L308 133L306 135z"/>
<path style="fill:#708bac; stroke:none;" d="M369 133L370 134L369 133z"/>
<path style="fill:#9e5a5a; stroke:none;" d="M396 133L397 134L396 133M506 133L506 136L507 136L506 133z"/>
<path style="fill:#b9906d; stroke:none;" d="M249 136L252 136L251 134L249 136M314 134L315 135L314 134z"/>
<path style="fill:#708bac; stroke:none;" d="M373 134L372 136L373 134z"/>
<path style="fill:#9e5a5a; stroke:none;" d="M393 134L381 141L374 137L374 142L362 140L367 148L367 149L358 145L361 141L356 143L357 151L363 150L363 151L359 151L360 154L355 154L357 152L357 151L351 154L356 161L352 162L353 154L344 159L344 156L343 156C340.471 163.252 345.989 175.709 348.167 183C349.16 186.326 349.399 190.228 353 191L353 192L351 194L359 204L358 207L361 208L358 211L362 205L370 207L381 199L380 197L383 196L383 195L379 194C383.891 191.751 385.564 190.247 387 185C390.718 188.368 393.504 187.045 396 183L401 183C401.844 174.153 407.484 168.925 416 172L415 177L414 177L407 173L407 177L424 193L423 190L430 191L429 188C431.282 188.055 433.755 185.53 431 184L431 183L436 178C435.371 172.56 435.83 166.319 430 164L432 156L428 157L431 154L421 151C432.151 139.849 404.978 140.089 406 136L398 136L395 138L393 134M399 134L400 135L399 134z"/>
<path style="fill:#b9906d; stroke:none;" d="M302 135L303 136L302 135z"/>
<path style="fill:#c7b7a2; stroke:none;" d="M32 258L29 259L29 261L32 262L32 266L55 246C51.4276 251.224 38.5677 268.121 46 273L42 285L51 284L52 284L53 284L55 282C53.2192 287.369 42.1317 296.062 49 300L56 298L53 300L53 301L58 303L58 304L51 302L48 304L48 303L50 302L47 302L48 308L53 304L54 311C46.7912 310.26 40.127 315.328 36 321L35 318L32 320L32 316L21 329L21 326L20 326L17 331L19 323L13 329L8 327L8 329L5 328L2 336L3 337L7 331L8 331L10 335L10 336L8 338L16 336L17 336L18 336C22.5996 341.264 42.1163 338 49 338L140 338L507 338L505 313L504 313L498 320L496 311L491 319L484 318L485 322L482 321L483 317L481 319L480 319L478 317L475 322L475 319L474 319L470 319L468 323L466 315L456 319L459 314L451 312L451 306L447 308L457 301L456 300L453 302C455.758 297.194 459.055 297.786 464 299C468.392 296.663 481.247 296.83 482 303L483 304L485 304L490 299L490 306L491 306L495 300L496 306L503 301L506 308L507 308L507 227L478 238C478.894 232.402 482.747 227.619 484.139 222C487.792 207.251 482.075 193.055 468 186.278C463.696 184.206 459.388 184.873 455 183.694C451.721 182.814 438.789 172.552 440 171L436 168L438 170L438 171L432 189C427.891 192.891 436.647 192.992 439 193L439 195C432.353 195.525 411.018 194.401 407 199L406 199C403.76 196.474 401.693 197.38 400 200C393.898 195.726 377.855 196.329 378 206L376 211L375 211L375 208L370 209L362 219C355.098 206.04 350.672 192.091 346.745 178C344.165 168.74 342.33 159.343 340.116 150C339.27 146.432 338.807 141.251 335.697 138.858C329.616 134.18 303.029 131.708 297.883 138.419C294.119 143.327 294.67 154.929 293.576 161C290.37 178.781 287.234 196.6 282.29 214C280.616 219.893 279.116 235.664 271.956 236.852C253.066 239.985 231.17 237 212 237L87 237C70.0354 237 29.2463 231.202 32 258z"/>
<path style="fill:#b9906d; stroke:none;" d="M318.667 135.333L319.333 135.667L318.667 135.333z"/>
<path style="fill:#675652; stroke:none;" d="M373 135L374 136L373 135z"/>
<path style="fill:#708bac; stroke:none;" d="M384 135L385 136L384 135z"/>
<path style="fill:#b9906d; stroke:none;" d="M243 137L246 144L238 147C244.451 147 246.644 158.693 256 155L264 164L277 181L286 176L287 179L288 176L289 176L289 183L290 183L292 169L291 169L291 171L290 171L291 165L292 165L292 167L293 167L295 151L294 151L280 154L272 149C269.177 152.916 265.746 149.225 264 146L243 137M326 136L326 137L332 137L326 136z"/>
<path style="fill:#9e5a5a; stroke:none;" d="M343 136L344 137L343 136z"/>
<path style="fill:#c7b7a2; stroke:none;" d="M363.333 136.667L363.667 137.333L363.333 136.667M365 136L366 137L365 136z"/>
<path style="fill:#9e5a5a; stroke:none;" d="M366 136L366 138L368 138L368 136L366 136M372.667 136.333L373.333 136.667L372.667 136.333z"/>
<path style="fill:#c7b7a2; stroke:none;" d="M376 138L379 137L376 138z"/>
<path style="fill:#708bac; stroke:none;" d="M382 136L383 137L382 136z"/>
<path style="fill:#b9906d; stroke:none;" d="M404 136L405 137L404 136M297 137L298 138L297 137M333 137L334 138L333 137z"/>
<path style="fill:#9e5a5a; stroke:none;" d="M336 137L344 147L345 147L340 138L343 140L344 139L336 137z"/>
<path style="fill:#c7b7a2; stroke:none;" d="M361 137L360 139L361 137M368 137L369 138L368 137M370 137L371 138L370 137z"/>
<path style="fill:#b9906d; stroke:none;" d="M377.667 137.333L378.333 137.667L377.667 137.333z"/>
<path style="fill:#708bac; stroke:none;" d="M379 137L380 138L379 137z"/>
<path style="fill:#b9906d; stroke:none;" d="M390 140L394 141L394 137L390 140M402 137L403 138L402 137M405 137L405 138L409 138L405 137z"/>
<path style="fill:#c7b7a2; stroke:none;" d="M369 138L370 139L369 138z"/>
<path style="fill:#9e5a5a; stroke:none;" d="M377 138L378 139L377 138z"/>
<path style="fill:#708bac; stroke:none;" d="M378 138L379 139L378 138z"/>
<path style="fill:#c7b7a2; stroke:none;" d="M380.667 138.333L381.333 138.667L380.667 138.333z"/>
<path style="fill:#b9906d; stroke:none;" d="M410 140L414 139L410 140z"/>
<path style="fill:#675652; stroke:none;" d="M42 139L43 140L42 139z"/>
<path style="fill:#c7b7a2; stroke:none;" d="M370 139L371 140L370 139z"/>
<path style="fill:#675652; stroke:none;" d="M378 139L379 140L378 139z"/>
<path style="fill:#9e5a5a; stroke:none;" d="M380 139L381 140L380 139z"/>
<path style="fill:#b9906d; stroke:none;" d="M414 139L415 140L414 139M296 140L297 141L296 140z"/>
<path style="fill:#c7b7a2; stroke:none;" d="M377 140L378 141L377 140z"/>
<path style="fill:#b9906d; stroke:none;" d="M415.667 140.333L416.333 140.667L415.667 140.333M418 140L419 141L418 140z"/>
<path style="fill:#675652; stroke:none;" d="M179 152L186 154C189.336 160.386 200.191 173.759 207 176C207.895 169.284 213.03 161.19 219 158L218 155L223 149L224 149L225 151C223.548 135.914 200.946 142.506 191.914 143.762C188.73 144.204 183.242 143.094 180.61 145.178C178.723 146.673 179.166 149.858 179 152z"/>
<path style="fill:#9e5a5a; stroke:none;" d="M343 141L344 142L343 141z"/>
<path style="fill:#c7b7a2; stroke:none;" d="M356 141L357 142L356 141z"/>
<path style="fill:#9e5a5a; stroke:none;" d="M367 141L368 142L367 141M370 141L371 142L370 141z"/>
<path style="fill:#b9906d; stroke:none;" d="M383 141L384 142L383 141z"/>
<path style="fill:#708bac; stroke:none;" d="M57.3333 142.667L57.6667 143.333L57.3333 142.667z"/>
<path style="fill:#b9906d; stroke:none;" d="M296.333 142.667L296.667 143.333L296.333 142.667z"/>
<path style="fill:#9e5a5a; stroke:none;" d="M339 142L340 143L339 142z"/>
<path style="fill:#b9906d; stroke:none;" d="M411 142L412 143L411 142z"/>
<path style="fill:#708bac; stroke:none;" d="M442 142L429 149L434 161L435 161L436 159C435.563 164.422 435.799 167.161 440 171C437.921 172.564 440.062 173.264 442 174L441 168L452 168L463 171L464 171L467 168L466 171C479.768 166.062 488.114 180.58 501 182L500 184L507 184L507 183L505 182C510.568 177.134 507 155.358 507 148L485 152C483.374 154.066 482.145 156.09 480 154L465 159L465 162L456 161L456 151C450.966 148.515 445.747 148.002 444 142L442 142z"/>
<path style="fill:#675652; stroke:none;" d="M178.667 143.333L179.333 143.667L178.667 143.333z"/>
<path style="fill:#9e5a5a; stroke:none;" d="M340 143L339 147L341 146L341 147L343 152L343 153L341 155L346 151L350 151L344 143L344 144L347 148L343 150L340 143z"/>
<path style="fill:#c7b7a2; stroke:none;" d="M354.333 143.667L354.667 144.333L354.333 143.667M361 143L362 144L361 143z"/>
<path style="fill:#b9906d; stroke:none;" d="M373 143L374 144L373 143M408 143L409 144L408 143z"/>
<path style="fill:#9e5a5a; stroke:none;" d="M349.667 144.333L350.333 144.667L349.667 144.333z"/>
<path style="fill:#675652; stroke:none;" d="M391 144L392 145L391 144z"/>
<path style="fill:#b9906d; stroke:none;" d="M412 144L413 145L412 144M422 144L423 145L422 144z"/>
<path style="fill:#9e5a5a; stroke:none;" d="M353.667 145.333L354.333 145.667L353.667 145.333z"/>
<path style="fill:#c7b7a2; stroke:none;" d="M361 145L362 146L361 145z"/>
<path style="fill:#675652; stroke:none;" d="M379.667 145.333L380.333 145.667L379.667 145.333z"/>
<path style="fill:#b9906d; stroke:none;" d="M381 145L384 148L381 145z"/>
<path style="fill:#708bac; stroke:none;" d="M226 148L224 149L223 149L218 155L219 158C203.475 163.436 200.704 197.009 208.97 208.907C217.354 220.974 233.409 225.223 247 226.089C254.011 226.536 267.125 227.035 272 221L273 221L273 224L274 224L282 216L282 215L280 214L283 212L284 200C278.355 192.813 276.072 180.292 270.955 172C268.82 168.54 268.512 164.234 264 164L256 155C248.828 155.741 243.535 152.112 240 146L226 148z"/>
<path style="fill:#b9906d; stroke:none;" d="M340 146L339 148L341 148L340 146M370 146L369 148L371 148L370 146z"/>
<path style="fill:#675652; stroke:none;" d="M381 148L375 157L380 156L384 164L385 164C388.78 156.208 391.114 151.35 401 151C397.296 145.758 386.619 147.261 381 148z"/>
<path style="fill:#b9906d; stroke:none;" d="M295 147L295 150L296 150L295 147z"/>
<path style="fill:#c7b7a2; stroke:none;" d="M353 147L352 149L354 149L353 147M363 147L364 148L363 147z"/>
<path style="fill:#b9906d; stroke:none;" d="M372.667 147.333L373.333 147.667L372.667 147.333z"/>
<path style="fill:#675652; stroke:none;" d="M377 147L378 148L377 147M402 147L406 149L406 148L402 147z"/>
<path style="fill:#b9906d; stroke:none;" d="M414 147L415 152L417 151L417 160L418 160L421 160L422 147L419 149L414 147M424 147L423 149L425 149L424 147z"/>
<path style="fill:#9e5a5a; stroke:none;" d="M109 148L110 149L109 148z"/>
<path style="fill:#b9906d; stroke:none;" d="M341 148L342 149L341 148z"/>
<path style="fill:#675652; stroke:none;" d="M378.333 148.667L378.667 149.333L378.333 148.667z"/>
<path style="fill:#9e5a5a; stroke:none;" d="M382.667 148.333L383.333 148.667L382.667 148.333z"/>
<path style="fill:#675652; stroke:none;" d="M409 148L407 149L407 150L409 148z"/>
<path style="fill:#c7b7a2; stroke:none;" d="M418 148L419 149L418 148z"/>
<path style="fill:#9e5a5a; stroke:none;" d="M352.667 149.333L353.333 149.667L352.667 149.333z"/>
<path style="fill:#c7b7a2; stroke:none;" d="M355.667 149.333L356.333 149.667L355.667 149.333z"/>
<path style="fill:#708bac; stroke:none;" d="M379.333 149.667L379.667 150.333L379.333 149.667z"/>
<path style="fill:#9e5a5a; stroke:none;" d="M380 152L380 154L385 156L386 156L387 149L380 152z"/>
<path style="fill:#708bac; stroke:none;" d="M389 149L388 151L389 149M402 149L402 150L408 151L402 149z"/>
<path style="fill:#b9906d; stroke:none;" d="M422 149L421 151L423 151L422 149M424 150L430 153L428 149L424 150M340.333 150.667L340.667 151.333L340.333 150.667z"/>
<path style="fill:#c7b7a2; stroke:none;" d="M353 150L354 151L353 150M361 150L362 151L361 150z"/>
<path style="fill:#b9906d; stroke:none;" d="M362 150L363 151L362 150M369 150L369 151L372 151L369 150z"/>
<path style="fill:#9e5a5a; stroke:none;" d="M389 154L392 157L400 150L389 154z"/>
<path style="fill:#b9906d; stroke:none;" d="M406 150L396 152L396 153L409 156L410 155L410 150L406 150M444.667 150.333L445.333 150.667L444.667 150.333M367.333 151.667L367.667 152.333L367.333 151.667z"/>
<path style="fill:#c7b7a2; stroke:none;" d="M368 151L369 152L368 151z"/>
<path style="fill:#b9906d; stroke:none;" d="M384.333 151.667L384.667 152.333L384.333 151.667z"/>
<path style="fill:#9e5a5a; stroke:none;" d="M419.333 151.667L419.667 152.333L419.333 151.667z"/>
<path style="fill:#b9906d; stroke:none;" d="M423 151L424 152L423 151M341 152L342 153L341 152z"/>
<path style="fill:#708bac; stroke:none;" d="M342 152L343 153L342 152z"/>
<path style="fill:#9e5a5a; stroke:none;" d="M348 152L345 155L346 156L347 154L349 155L350 154L350 153L348 152z"/>
<path style="fill:#708bac; stroke:none;" d="M350 152L351 153L350 152z"/>
<path style="fill:#b9906d; stroke:none;" d="M443 152L443 153L448 154L443 152M348 153L349 154L348 153z"/>
<path style="fill:#9e5a5a; stroke:none;" d="M356 153L356 154L359 154L356 153z"/>
<path style="fill:#b9906d; stroke:none;" d="M366 153L367 154L366 153z"/>
<path style="fill:#675652; stroke:none;" d="M369 153L368 155L370 155L369 153z"/>
<path style="fill:#b9906d; stroke:none;" d="M395 153L392 157L388 155L389 160L387 163L392 162L391 165L395 163L394 165L395 165L400 166L400 165L394 162L391 159L391 158C393.604 156.915 395.699 156.017 395 153z"/>
<path style="fill:#c7b7a2; stroke:none;" d="M406 153L407 154L406 153z"/>
<path style="fill:#b9906d; stroke:none;" d="M422 153L421 155L422 153M424 153C424.614 155.851 425.303 155.854 428 155L428 154L424 153M430 153L431 154L430 153z"/>
<path style="fill:#708bac; stroke:none;" d="M378.667 154.333L379.333 154.667L378.667 154.333z"/>
<path style="fill:#b9906d; stroke:none;" d="M380 154L381 155L380 154M384 154L385 155L384 154z"/>
<path style="fill:#c7b7a2; stroke:none;" d="M426 154L427 155L426 154z"/>
<path style="fill:#b9906d; stroke:none;" d="M428 157L432 156L430 164L436 173L437 173L438 171C436.129 167.7 433.649 149.919 428 157M436.667 154.333L437.333 154.667L436.667 154.333z"/>
<path style="fill:#c7b7a2; stroke:none;" d="M117 173L116 176L120 176L119 195L130 199L127 202L131 201L130 206C152.948 222.72 178.331 188.536 161.073 168.59C153.05 159.319 139.18 152.395 127 156.515C121.799 158.274 108.521 168.216 117 173M352.333 155.667L352.667 156.333L352.333 155.667z"/>
<path style="fill:#9e5a5a; stroke:none;" d="M387 155L389 160L387 155z"/>
<path style="fill:#b9906d; stroke:none;" d="M412 156L412 157L416 157L412 156z"/>
<path style="fill:#c7b7a2; stroke:none;" d="M422 155L423 156L422 155z"/>
<path style="fill:#b9906d; stroke:none;" d="M351 156L352 157L351 156z"/>
<path style="fill:#675652; stroke:none;" d="M353 156L354 157L353 156z"/>
<path style="fill:#b9906d; stroke:none;" d="M357 156L355 159L363 160L371 157L371 156L362 158L363 156L357 156z"/>
<path style="fill:#708bac; stroke:none;" d="M376 156L376 157L380 157L376 156z"/>
<path style="fill:#b9906d; stroke:none;" d="M421 156L422 157L421 156M438 156L438 159L439 159L438 156M352 157L353 158L352 157z"/>
<path style="fill:#c7b7a2; stroke:none;" d="M355.667 157.333L356.333 157.667L355.667 157.333z"/>
<path style="fill:#b9906d; stroke:none;" d="M372 157L372 158L377 158L372 157M398 157L401 161L398 157z"/>
<path style="fill:#675652; stroke:none;" d="M352 158L352 162L356 161L352 158z"/>
<path style="fill:#c7b7a2; stroke:none;" d="M391 158L392 159L391 158z"/>
<path style="fill:#b9906d; stroke:none;" d="M378 159L380 161L380 159L378 159z"/>
<path style="fill:#c7b7a2; stroke:none;" d="M390 159L391 160L390 159z"/>
<path style="fill:#b9906d; stroke:none;" d="M435 159L437 161L435 159z"/>
<path style="fill:#708bac; stroke:none;" d="M105 163C103.571 179.363 102.634 187.999 111 203L113 202C117.009 207.765 124.168 210.938 131 211L131 214L137 213L137 212L136 209L130 206L131 201L127 202L130 199L119 195L120 176L116 176L117 173C113.018 169.24 120.344 157.087 110.045 160.934C108.266 161.598 106.839 162.527 105 163z"/>
<path style="fill:#b9906d; stroke:none;" d="M358 160L361 162L358 160z"/>
<path style="fill:#675652; stroke:none;" d="M381.667 160.333L382.333 160.667L381.667 160.333z"/>
<path style="fill:#c7b7a2; stroke:none;" d="M435.333 160.667L435.667 161.333L435.333 160.667z"/>
<path style="fill:#b9906d; stroke:none;" d="M438 160L437 164L440 164L438 160z"/>
<path style="fill:#675652; stroke:none;" d="M75 161L78 164L75 161z"/>
<path style="fill:#b9906d; stroke:none;" d="M342 161L343 162L342 161M384 161L385 162L384 161M411 161L408 162L408 163L411 161z"/>
<path style="fill:#675652; stroke:none;" d="M417 161L418 162L417 161z"/>
<path style="fill:#b9906d; stroke:none;" d="M426 161L427 162L426 161z"/>
<path style="fill:#675652; stroke:none;" d="M351 162L352 163L351 162z"/>
<path style="fill:#b9906d; stroke:none;" d="M355.667 162.333L356.333 162.667L355.667 162.333M382.333 162.667L382.667 163.333L382.333 162.667z"/>
<path style="fill:#675652; stroke:none;" d="M399.667 162.333L400.333 162.667L399.667 162.333z"/>
<path style="fill:#9e5a5a; stroke:none;" d="M71 163L72 164L71 163z"/>
<path style="fill:#b9906d; stroke:none;" d="M364 163L365 164L364 163z"/>
<path style="fill:#c7b7a2; stroke:none;" d="M393.667 163.333L394.333 163.667L393.667 163.333M397 163L400 165L397 163z"/>
<path style="fill:#b9906d; stroke:none;" d="M399 163L400 164L399 163z"/>
<path style="fill:#675652; stroke:none;" d="M401 163L402 164L401 163z"/>
<path style="fill:#b9906d; stroke:none;" d="M417 163L418 167L415 170L421 169L419 163L417 163M422 163L425 166L422 163M426 163L427 164L426 163M353 164L351 165L351 166L353 164z"/>
<path style="fill:#675652; stroke:none;" d="M373 164C366.693 167.637 361.815 166.385 355 166C356.427 169.209 357.456 170.141 361 170L374 177L380 165L370 170L375 165L373 164z"/>
<path style="fill:#b9906d; stroke:none;" d="M380 168L386 166C383.084 164.439 381.645 165.245 380 168z"/>
<path style="fill:#c7b7a2; stroke:none;" d="M395 164L396 165L395 164z"/>
<path style="fill:#b9906d; stroke:none;" d="M406 164L407 165L406 164z"/>
<path style="fill:#675652; stroke:none;" d="M409 164L410 165L409 164z"/>
<path style="fill:#9e5a5a; stroke:none;" d="M291 165L290 171L291 171L291 165z"/>
<path style="fill:#b9906d; stroke:none;" d="M343 165L344 166L343 165M408 165L409 166L408 165M431 165L426 167L426 168L431 168L430 172L431 165z"/>
<path style="fill:#708bac; stroke:none;" d="M364 166L365 167L364 166z"/>
<path style="fill:#b9906d; stroke:none;" d="M365 166L366 167L365 166z"/>
<path style="fill:#708bac; stroke:none;" d="M366.667 166.333L367.333 166.667L366.667 166.333z"/>
<path style="fill:#b9906d; stroke:none;" d="M389.667 166.333L390.333 166.667L389.667 166.333z"/>
<path style="fill:#675652; stroke:none;" d="M404 166L404 167L407 167L404 166z"/>
<path style="fill:#b9906d; stroke:none;" d="M437.667 166.333L438.333 166.667L437.667 166.333z"/>
<path style="fill:#c7b7a2; stroke:none;" d="M439 166L440 167L439 166z"/>
<path style="fill:#b9906d; stroke:none;" d="M443.333 166.667L443.667 167.333L443.333 166.667M448.333 166.667L448.667 167.333L448.333 166.667z"/>
<path style="fill:#9e5a5a; stroke:none;" d="M66 167L67 168L66 167z"/>
<path style="fill:#b9906d; stroke:none;" d="M351 167L352 168L351 167M399.333 167.667L399.667 168.333L399.333 167.667M411 167L414 169L411 167z"/>
<path style="fill:#675652; stroke:none;" d="M79 168L80 169L79 168z"/>
<path style="fill:#b9906d; stroke:none;" d="M348.667 168.333L349.333 168.667L348.667 168.333M383 168L384 169L383 168M441 168C445.467 188.325 471.395 182.877 482.005 200C490.459 213.642 479.708 224.94 478 238L507 227L507 221L484 229C487.108 219.28 489.332 207.313 483.657 198C476.84 186.815 459.259 182.662 467 168L464 171L463 171L462 169C458.291 170.743 455.035 170.899 452 168L441 168z"/>
<path style="fill:#9e5a5a; stroke:none;" d="M288.333 169.667L288.667 170.333L288.333 169.667z"/>
<path style="fill:#b9906d; stroke:none;" d="M344 169L345 170L344 169M353 169L353 171L355 171L353 169z"/>
<path style="fill:#c7b7a2; stroke:none;" d="M354 169L355 170L354 169z"/>
<path style="fill:#708bac; stroke:none;" d="M377 169L378 170L377 169z"/>
<path style="fill:#b9906d; stroke:none;" d="M403 169L404 170L403 169M423 169L423 172L426 171L426 170L423 169z"/>
<path style="fill:#9e5a5a; stroke:none;" d="M484 229L507 221C507 201.402 507.176 186.759 488.996 176.656C484.088 173.928 467.752 162.617 463.836 173.265C460.643 181.946 478.005 191.194 482.291 197C489.624 206.935 486.5 218.093 484 229z"/>
<path style="fill:#b9906d; stroke:none;" d="M349 170L350 171L349 170M356 170L357 171L356 170z"/>
<path style="fill:#708bac; stroke:none;" d="M376 170L377 171L376 170z"/>
<path style="fill:#b9906d; stroke:none;" d="M400 170L401 171L400 170z"/>
<path style="fill:#675652; stroke:none;" d="M402 180L404 180L396 183C392.997 186.272 390.947 187.504 387 185L388 190L388 191L380 197L380 198C385.902 197.254 393.949 195.173 399 199L400 199C407.15 193.758 420.328 201.128 426 193L407 177L407 173L414 177L415 177L415 171C406.963 169.114 404.009 172.529 402 180z"/>
<path style="fill:#708bac; stroke:none;" d="M115 171L116 172L115 171z"/>
<path style="fill:#675652; stroke:none;" d="M417 171L418 172L417 171z"/>
<path style="fill:#b9906d; stroke:none;" d="M420 171L421 172L420 171z"/>
<path style="fill:#9e5a5a; stroke:none;" d="M289 172L290 175L289 172z"/>
<path style="fill:#b9906d; stroke:none;" d="M345 172L346 173L345 172z"/>
<path style="fill:#c7b7a2; stroke:none;" d="M359 172L360 173L359 172z"/>
<path style="fill:#708bac; stroke:none;" d="M360 172L361 173L360 172M415 172L416 173L415 172z"/>
<path style="fill:#9e5a5a; stroke:none;" d="M68 173L69 174L68 173z"/>
<path style="fill:#675652; stroke:none;" d="M356 173L356 178L357 178L356 173z"/>
<path style="fill:#b9906d; stroke:none;" d="M359 178L361 176L362 176C362.729 179.332 364.67 178.707 366 176L363 173L359 178z"/>
<path style="fill:#9e5a5a; stroke:none;" d="M363 173L364 174L363 173z"/>
<path style="fill:#b9906d; stroke:none;" d="M366 173L366 175L369 175L369 173L366 173M429 173L430 176L429 173M435 173L436 178L437 178L435 173M352 174L351 176L353 176L352 174z"/>
<path style="fill:#9e5a5a; stroke:none;" d="M360.333 174.667L360.667 175.333L360.333 174.667z"/>
<path style="fill:#c7b7a2; stroke:none;" d="M362 174L365 176L362 174z"/>
<path style="fill:#b9906d; stroke:none;" d="M364 174L365 175L364 174z"/>
<path style="fill:#675652; stroke:none;" d="M375 175L376 176L375 175M381 175L384 178L381 175z"/>
<path style="fill:#b9906d; stroke:none;" d="M416.333 175.667L416.667 176.333L416.333 175.667z"/>
<path style="fill:#9e5a5a; stroke:none;" d="M284 200L282 211L283 211L289 176L288 176L287 179L286 176C275.537 178.41 276.922 194.059 284 200z"/>
<path style="fill:#b9906d; stroke:none;" d="M346.333 176.667L346.667 177.333L346.333 176.667M369 176C369.946 179.141 370.708 180.069 374 180L375 183L376 183L375 177L369 176M375.667 176.333L376.333 176.667L375.667 176.333M419 176L420 177L419 176z"/>
<path style="fill:#c7b7a2; stroke:none;" d="M363 177L364 178L363 177z"/>
<path style="fill:#b9906d; stroke:none;" d="M377.667 177.333L378.333 177.667L377.667 177.333z"/>
<path style="fill:#675652; stroke:none;" d="M428 177L429 178L428 177z"/>
<path style="fill:#b9906d; stroke:none;" d="M356 178L353 180L353 181L356 183L357 183L358 183L356 178M376 178L377 179L376 178z"/>
<path style="fill:#675652; stroke:none;" d="M380.667 178.333L381.333 178.667L380.667 178.333M385 178L385 179L388 180L385 178z"/>
<path style="fill:#b9906d; stroke:none;" d="M433 178L431 183L431 184L436 178L433 178M401 179L403 183L401 179M347 180L348 181L347 180z"/>
<path style="fill:#708bac; stroke:none;" d="M403.333 180.667L403.667 181.333L403.333 180.667M404 184L411 185L409 180L404 184z"/>
<path style="fill:#b9906d; stroke:none;" d="M428 180L430 184L428 180z"/>
<path style="fill:#675652; stroke:none;" d="M350.333 181.667L350.667 182.333L350.333 181.667z"/>
<path style="fill:#c7b7a2; stroke:none;" d="M356 181L357 182L356 181z"/>
<path style="fill:#675652; stroke:none;" d="M381 181L382 186L386 186L385 181L381 181z"/>
<path style="fill:#b9906d; stroke:none;" d="M389 181L390 182L389 181M396 181L396 182L399 182L396 181M377 184L380 183L377 184M500 182L501 183L500 182M505.667 182.333L506.333 182.667L505.667 182.333z"/>
<path style="fill:#675652; stroke:none;" d="M389 183L390 184L389 183z"/>
<path style="fill:#b9906d; stroke:none;" d="M392 183L393 184L392 183z"/>
<path style="fill:#708bac; stroke:none;" d="M400.667 183.333L401.333 183.667L400.667 183.333z"/>
<path style="fill:#b9906d; stroke:none;" d="M288 184L288 189L289 189L288 184z"/>
<path style="fill:#675652; stroke:none;" d="M350 184L351 185L350 184z"/>
<path style="fill:#b9906d; stroke:none;" d="M352 185L351 189L356 188L356 192C357.913 191.055 361.314 188.578 359 187L361 184L352 185z"/>
<path style="fill:#c7b7a2; stroke:none;" d="M359 184L360 185L359 184z"/>
<path style="fill:#b9906d; stroke:none;" d="M379 184L380 185L379 184M500 184L500 185L506 201L507 201L507 184L500 184z"/>
<path style="fill:#708bac; stroke:none;" d="M504 185L505 186L504 185M506 185L507 186L506 185z"/>
<path style="fill:#b9906d; stroke:none;" d="M202.333 186.667L202.667 187.333L202.333 186.667M349 186L350 187L349 186z"/>
<path style="fill:#9e5a5a; stroke:none;" d="M354 186L355 187L354 186z"/>
<path style="fill:#b9906d; stroke:none;" d="M377.667 186.333L378.333 186.667L377.667 186.333M381 186L381 187L384 188L381 186M431 186L432 187L431 186M204 187C202.231 190.315 200.836 194.235 204 197L204 187z"/>
<path style="fill:#c7b7a2; stroke:none;" d="M358 187L357 189L358 187z"/>
<path style="fill:#675652; stroke:none;" d="M380 187L382 191L383 191L380 187z"/>
<path style="fill:#c7b7a2; stroke:none;" d="M382 187L383 188L382 187z"/>
<path style="fill:#708bac; stroke:none;" d="M384 187L382 188L382 189L384 187z"/>
<path style="fill:#b9906d; stroke:none;" d="M417 187L418 188L417 187z"/>
<path style="fill:#c7b7a2; stroke:none;" d="M384 188L385 189L384 188z"/>
<path style="fill:#675652; stroke:none;" d="M422 188L423 189L422 188z"/>
<path style="fill:#b9906d; stroke:none;" d="M429.333 188.667L429.667 189.333L429.333 188.667M431 188L432 189L431 188M371 189L377 192L377 191L371 189M386 189L387 190L386 189M378.333 190.667L378.667 191.333L378.333 190.667M380 190L380 192L382 192L382 190L380 190z"/>
<path style="fill:#708bac; stroke:none;" d="M386.667 190.333L387.333 190.667L386.667 190.333z"/>
<path style="fill:#9e5a5a; stroke:none;" d="M410 192L413 194L416 192L410 192z"/>
<path style="fill:#b9906d; stroke:none;" d="M423.333 190.667L423.667 191.333L423.333 190.667z"/>
<path style="fill:#675652; stroke:none;" d="M424 190L425 191L424 190z"/>
<path style="fill:#b9906d; stroke:none;" d="M287 191L287 194L288 194L287 191M351.667 191.333L352.333 191.667L351.667 191.333M361 191L360 192L360 194L365 193L368 194L361 191z"/>
<path style="fill:#c7b7a2; stroke:none;" d="M383 194L387 192L383 194z"/>
<path style="fill:#708bac; stroke:none;" d="M424 191L427 194L424 191z"/>
<path style="fill:#b9906d; stroke:none;" d="M425 191L425 192L430 192L429 196L439 193L425 191z"/>
<path style="fill:#c7b7a2; stroke:none;" d="M112.667 192.333L113.333 192.667L112.667 192.333z"/>
<path style="fill:#b9906d; stroke:none;" d="M382 192L379 194C381.235 194.545 383.017 194.666 382 192z"/>
<path style="fill:#9e5a5a; stroke:none;" d="M396 192L397 193L396 192M406 192L407 197L406 192M419.667 192.333L420.333 192.667L419.667 192.333M429 192L420 196L420 197C423.531 196.924 430.094 196.935 429 192z"/>
<path style="fill:#b9906d; stroke:none;" d="M358 193L359 194L358 193M384 193L385 194L384 193z"/>
<path style="fill:#c7b7a2; stroke:none;" d="M427 193L428 194L427 193z"/>
<path style="fill:#675652; stroke:none;" d="M428 193L429 194L428 193z"/>
<path style="fill:#9e5a5a; stroke:none;" d="M436.667 193.333L437.333 193.667L436.667 193.333z"/>
<path style="fill:#b9906d; stroke:none;" d="M351 194L352 195L351 194z"/>
<path style="fill:#675652; stroke:none;" d="M352 194L353 195L352 194z"/>
<path style="fill:#708bac; stroke:none;" d="M383 194L384 195L383 194z"/>
<path style="fill:#b9906d; stroke:none;" d="M377 195L379 198L377 195M107 196L108 197L107 196M286.333 196.667L286.667 197.333L286.333 196.667M352 196L352 199L353 199L352 196M362 196L362 197L367 198L362 196z"/>
<path style="fill:#9e5a5a; stroke:none;" d="M408 196L409 197L408 196z"/>
<path style="fill:#b9906d; stroke:none;" d="M426 196L427 197L426 196M108 197L109 198L108 197z"/>
<path style="fill:#9e5a5a; stroke:none;" d="M383 197L384 198L383 197z"/>
<path style="fill:#b9906d; stroke:none;" d="M384 197L384 198L388 198L384 197z"/>
<path style="fill:#708bac; stroke:none;" d="M388 197L388 198L391 198L388 197z"/>
<path style="fill:#9e5a5a; stroke:none;" d="M391 197L392 198L391 197z"/>
<path style="fill:#708bac; stroke:none;" d="M392 197L392 198L398 198L392 197z"/>
<path style="fill:#b9906d; stroke:none;" d="M398 197L399 198L398 197M400 197L401 198L400 197M368 198L365 200L365 201L370 198L368 198z"/>
<path style="fill:#c7b7a2; stroke:none;" d="M378 198L379 199L378 198z"/>
<path style="fill:#b9906d; stroke:none;" d="M381 198L382 199L381 198z"/>
<path style="fill:#708bac; stroke:none;" d="M406 198L407 199L406 198z"/>
<path style="fill:#b9906d; stroke:none;" d="M379 199L379 201L381 199L379 199z"/>
<path style="fill:#708bac; stroke:none;" d="M399 199L400 200L399 199M445 199L445 202L446 202L445 199z"/>
<path style="fill:#b9906d; stroke:none;" d="M285.333 200.667L285.667 201.333L285.333 200.667M353 200L354 201L353 200z"/>
<path style="fill:#675652; stroke:none;" d="M354 200L357 209L361 209L361 208L358 207L359 204L354 200M400 200L401 201L400 200z"/>
<path style="fill:#b9906d; stroke:none;" d="M407 200L408 201L407 200z"/>
<path style="fill:#c7b7a2; stroke:none;" d="M120 201L122 204L125 202L120 201z"/>
<path style="fill:#b9906d; stroke:none;" d="M368 204L369 204L371 203C369.188 201.499 368.978 201.842 368 204M378 201L379 202L378 201z"/>
<path style="fill:#708bac; stroke:none;" d="M400 201L401 202L400 201z"/>
<path style="fill:#b9906d; stroke:none;" d="M112.333 202.667L112.667 203.333L112.333 202.667M354 202L355 203L354 202z"/>
<path style="fill:#c7b7a2; stroke:none;" d="M369 202L370 203L369 202z"/>
<path style="fill:#b9906d; stroke:none;" d="M377 202L378 203L377 202z"/>
<path style="fill:#708bac; stroke:none;" d="M393 202L394 203L393 202z"/>
<path style="fill:#b9906d; stroke:none;" d="M436 202L437 203L436 202M0 236L0 307C0 313.375 -2.73955 327.222 3 331L0 338L10 336L10 335L8 331L7 331L3 337L2 336L4 335L5 328L8 329L8 327L13 329L19 323L17 331L20 326L21 326L21 329L32 316L32 320L35 318L36 321C40.8039 316.149 46.8442 310.559 54 311L53 304L48 308L48 303L48 304L51 302L58 304L58 303L53 301L53 300L56 298C52.7028 297.654 49.8386 296.107 49 300C44.0351 294.942 53.807 287.995 55 282L53 284L52 284L51 284C48.2861 280.959 45.0048 283.175 42 285L46 273C39.5788 266.223 51.8834 252.614 55 246C45.3019 247.527 39.5052 260.376 32 266L32 262L29 261L29 259L32 258C30.6288 234.2 60.0738 237.193 76 237.004C125.404 236.416 174.581 237 224 237L263 237C268.151 237 274.75 238.597 277 233L276 233C268.083 240.616 242.573 236 232 236C206.664 236 181.305 234.002 156 234C137.529 233.999 117.179 236.375 99 233C102.884 217.621 86.7386 202.885 72 203.598C64.5152 203.96 59.1376 208.104 53.9745 213.14C48.2001 218.771 50.4379 231.752 42.9807 234.196C29.8485 238.5 13.6798 233.46 0 236z"/>
<path style="fill:#9e5a5a; stroke:none;" d="M355 203L356 204L355 203z"/>
<path style="fill:#b9906d; stroke:none;" d="M370 205L370 206L373 206L373 207L362 205L358 211L361 217L365 212L362 211L362 210C365.092 210.789 369.463 213.202 370 209L375 208L374 205L378 206L377 203L370 205z"/>
<path style="fill:#708bac; stroke:none;" d="M391 203L392 204L391 203z"/>
<path style="fill:#675652; stroke:none;" d="M391 204L393 209L394 209L396 203L391 204z"/>
<path style="fill:#b9906d; stroke:none;" d="M401 203L401 210L402 210L401 203z"/>
<path style="fill:#675652; stroke:none;" d="M435 204L435 205L439 206L438 203L435 204z"/>
<path style="fill:#708bac; stroke:none;" d="M438 203L439 204L438 203z"/>
<path style="fill:#b9906d; stroke:none;" d="M506.333 203.667L506.667 204.333L506.333 203.667M113 204C117.489 209.812 123.954 212.526 131 214L131 211L113 204z"/>
<path style="fill:#c7b7a2; stroke:none;" d="M127 204L130 208L127 204z"/>
<path style="fill:#675652; stroke:none;" d="M206 204C202.853 211.508 194.528 226.542 187 230C189.292 236.906 209.44 235 216 235L258 235C262.618 235.001 270.565 236.493 274.581 233.821C278.973 230.898 280 220.83 281 216C276.835 217.493 275.252 219.822 274 224L273 224L273 221L272 221C251.574 237.739 219.568 220.112 206 204z"/>
<path style="fill:#b9906d; stroke:none;" d="M284.333 204.667L284.667 205.333L284.333 204.667M355 204L356 205L355 204M406 204L407 205L406 204M416.333 204.667L416.667 205.333L416.333 204.667z"/>
<path style="fill:#675652; stroke:none;" d="M281.333 205.667L281.667 206.333L281.333 205.667z"/>
<path style="fill:#9e5a5a; stroke:none;" d="M356 205L357 206L356 205z"/>
<path style="fill:#675652; stroke:none;" d="M369 205L370 206L369 205M374 205L374 207L376 207L376 205L374 205z"/>
<path style="fill:#708bac; stroke:none;" d="M406.333 205.667L406.667 206.333L406.333 205.667M435 205L436 206L435 205z"/>
<path style="fill:#b9906d; stroke:none;" d="M356 206L357 207L356 206z"/>
<path style="fill:#675652; stroke:none;" d="M370.333 206.667L370.667 207.333L370.333 206.667z"/>
<path style="fill:#9e5a5a; stroke:none;" d="M371 206L372 207L371 206z"/>
<path style="fill:#675652; stroke:none;" d="M372 206L373 207L372 206z"/>
<path style="fill:#b9906d; stroke:none;" d="M437 206L438 207L437 206z"/>
<path style="fill:#708bac; stroke:none;" d="M444 206L443 209L444 206M375 207L376 208L375 207z"/>
<path style="fill:#b9906d; stroke:none;" d="M376 207L377 208L376 207M406 207L407 208L406 207M416 207L417 208L416 207M418 207L419 208L418 207M283.333 208.667L283.667 209.333L283.333 208.667z"/>
<path style="fill:#9e5a5a; stroke:none;" d="M369 208L370 209L369 208M375 208L376 209L375 208z"/>
<path style="fill:#675652; stroke:none;" d="M377 208L378 209L377 208z"/>
<path style="fill:#b9906d; stroke:none;" d="M378 208L382 210L382 209L378 208z"/>
<path style="fill:#675652; stroke:none;" d="M361 209L362 210L361 209z"/>
<path style="fill:#708bac; stroke:none;" d="M375 209L376 210L375 209z"/>
<path style="fill:#675652; stroke:none;" d="M382.667 209.333L383.333 209.667L382.667 209.333M389 209L388 211L389 209z"/>
<path style="fill:#708bac; stroke:none;" d="M389 211L392 212C392 208.898 395.367 210 398 210L389 211z"/>
<path style="fill:#b9906d; stroke:none;" d="M406 209L407 210L406 209M414 209L415 210L414 209M418.667 209.333L419.333 209.667L418.667 209.333M438 209L439 210L438 209z"/>
<path style="fill:#675652; stroke:none;" d="M362 210L363 211L362 210z"/>
<path style="fill:#9e5a5a; stroke:none;" d="M363.333 210.667L363.667 211.333L363.333 210.667z"/>
<path style="fill:#c7b7a2; stroke:none;" d="M364 210L365 211L364 210z"/>
<path style="fill:#675652; stroke:none;" d="M367 210L368 211L367 210z"/>
<path style="fill:#b9906d; stroke:none;" d="M375 210L376 211L375 210z"/>
<path style="fill:#675652; stroke:none;" d="M384 210L385 211L384 210z"/>
<path style="fill:#c7b7a2; stroke:none;" d="M391 210L396 216L397 210L391 210z"/>
<path style="fill:#b9906d; stroke:none;" d="M397.333 210.667L397.667 211.333L397.333 210.667z"/>
<path style="fill:#708bac; stroke:none;" d="M399 210L400 211L399 210z"/>
<path style="fill:#675652; stroke:none;" d="M406 210L406 213L407 213L406 210M364.667 211.333L365.333 211.667L364.667 211.333z"/>
<path style="fill:#9e5a5a; stroke:none;" d="M366 211L367 212L366 211z"/>
<path style="fill:#b9906d; stroke:none;" d="M376 211L377 212L376 211z"/>
<path style="fill:#708bac; stroke:none;" d="M385 211L386 212L385 211z"/>
<path style="fill:#b9906d; stroke:none;" d="M386 211L386 213L388 211L386 211z"/>
<path style="fill:#675652; stroke:none;" d="M400.333 211.667L400.667 212.333L400.333 211.667M433 211L434 212L433 211M281 212L280 215L281 212z"/>
<path style="fill:#b9906d; stroke:none;" d="M282.333 212.667L282.667 213.333L282.333 212.667M371.667 212.333L372.333 212.667L371.667 212.333z"/>
<path style="fill:#708bac; stroke:none;" d="M376 212L375 214L376 212z"/>
<path style="fill:#675652; stroke:none;" d="M391 212L392 213L391 212z"/>
<path style="fill:#708bac; stroke:none;" d="M396 212L396 215L397 215L396 212M421 212L420 214L422 214L421 212M423.667 212.333L424.333 212.667L423.667 212.333M432 212L433 213L432 212M128 213L129 214L128 213z"/>
<path style="fill:#b9906d; stroke:none;" d="M316 216L317 216L319 215L319 214L317 213L316 216M366 213L367 214L366 213M374 213L375 214L374 213z"/>
<path style="fill:#675652; stroke:none;" d="M376 213L377 214L376 213M392 213L393 214L392 213z"/>
<path style="fill:#b9906d; stroke:none;" d="M400 213L401 214L400 213z"/>
<path style="fill:#9e5a5a; stroke:none;" d="M406 213L407 214L406 213z"/>
<path style="fill:#b9906d; stroke:none;" d="M414 213L415 214L414 213z"/>
<path style="fill:#675652; stroke:none;" d="M422 213L424 216L422 213z"/>
<path style="fill:#b9906d; stroke:none;" d="M428 213L429 214L428 213z"/>
<path style="fill:#708bac; stroke:none;" d="M431 213L432 214L431 213z"/>
<path style="fill:#b9906d; stroke:none;" d="M441 213L442 214L441 213z"/>
<path style="fill:#9e5a5a; stroke:none;" d="M281 214L282 215L281 214M317 214L316 241L326 245L321 240C323.092 232.073 322.306 220.741 317 214z"/>
<path style="fill:#b9906d; stroke:none;" d="M375 214L376 215L375 214z"/>
<path style="fill:#675652; stroke:none;" d="M377 214L378 215L377 214z"/>
<path style="fill:#708bac; stroke:none;" d="M393 214L394 215L393 214M400 214L401 215L400 214z"/>
<path style="fill:#b9906d; stroke:none;" d="M419 214L417 216L417 219L422 214L419 214z"/>
<path style="fill:#c7b7a2; stroke:none;" d="M420 214L421 215L420 214z"/>
<path style="fill:#b9906d; stroke:none;" d="M424 214L425 215L424 214z"/>
<path style="fill:#675652; stroke:none;" d="M436 214L437 215L436 214z"/>
<path style="fill:#708bac; stroke:none;" d="M443 214L441 220L444 219L443 214M375 215L376 216L375 215M378 215L379 216L378 215M394 215L394 217L396 217L394 215z"/>
<path style="fill:#b9906d; stroke:none;" d="M396 215L397 216L396 215z"/>
<path style="fill:#675652; stroke:none;" d="M400 215L400 218L401 218L400 215z"/>
<path style="fill:#b9906d; stroke:none;" d="M405 215L406 216L405 215M412.333 215.667L412.667 216.333L412.333 215.667z"/>
<path style="fill:#708bac; stroke:none;" d="M413 215L414 216L413 215M418 215L419 216L418 215z"/>
<path style="fill:#c7b7a2; stroke:none;" d="M419 215L420 216L419 215z"/>
<path style="fill:#708bac; stroke:none;" d="M421 215L422 216L421 215z"/>
<path style="fill:#675652; stroke:none;" d="M275 216L276 217L275 216z"/>
<path style="fill:#b9906d; stroke:none;" d="M281 216L282 217L281 216z"/>
<path style="fill:#675652; stroke:none;" d="M360 216L361 217L360 216z"/>
<path style="fill:#b9906d; stroke:none;" d="M374 216L375 217L374 216z"/>
<path style="fill:#708bac; stroke:none;" d="M379 216L380 217L379 216z"/>
<path style="fill:#675652; stroke:none;" d="M405 216L406 217L405 216z"/>
<path style="fill:#b9906d; stroke:none;" d="M408 216L409 217L408 216z"/>
<path style="fill:#708bac; stroke:none;" d="M409.667 216.333L410.333 216.667L409.667 216.333z"/>
<path style="fill:#c7b7a2; stroke:none;" d="M418 216L419 217L418 216M421 216L423 218L423 216L421 216z"/>
<path style="fill:#708bac; stroke:none;" d="M423.333 216.667L423.667 217.333L423.333 216.667z"/>
<path style="fill:#b9906d; stroke:none;" d="M316 217L316 222L317 222L316 217z"/>
<path style="fill:#675652; stroke:none;" d="M361 217L362 218L361 217z"/>
<path style="fill:#708bac; stroke:none;" d="M380 217L381 218L380 217M396.333 217.667L396.667 218.333L396.333 217.667z"/>
<path style="fill:#b9906d; stroke:none;" d="M405 217L408 219L408 218L405 217z"/>
<path style="fill:#708bac; stroke:none;" d="M412 217L413 218L412 217z"/>
<path style="fill:#b9906d; stroke:none;" d="M414 217L415 218L414 217z"/>
<path style="fill:#708bac; stroke:none;" d="M417 217L418 218L417 217z"/>
<path style="fill:#675652; stroke:none;" d="M420 217L421 218L420 217z"/>
<path style="fill:#708bac; stroke:none;" d="M421 217L422 218L421 217z"/>
<path style="fill:#b9906d; stroke:none;" d="M443 217L444 218L443 217z"/>
<path style="fill:#675652; stroke:none;" d="M273 218L274 219L273 218z"/>
<path style="fill:#9e5a5a; stroke:none;" d="M280 218L281 219L280 218M361 218L362 219L361 218z"/>
<path style="fill:#b9906d; stroke:none;" d="M373.333 218.667L373.667 219.333L373.333 218.667z"/>
<path style="fill:#708bac; stroke:none;" d="M381 218L382 219L381 218M392 218L390 221L392 218z"/>
<path style="fill:#675652; stroke:none;" d="M409 218L411 220L409 218z"/>
<path style="fill:#708bac; stroke:none;" d="M410 218L412 220L410 218z"/>
<path style="fill:#b9906d; stroke:none;" d="M411 218L412 219L411 218z"/>
<path style="fill:#675652; stroke:none;" d="M412 218L413 219L412 218z"/>
<path style="fill:#b9906d; stroke:none;" d="M421.667 218.333L422.333 218.667L421.667 218.333z"/>
<path style="fill:#708bac; stroke:none;" d="M278 219L277 221L278 219z"/>
<path style="fill:#b9906d; stroke:none;" d="M280.333 219.667L280.667 220.333L280.333 219.667M319 219L320 220L319 219z"/>
<path style="fill:#708bac; stroke:none;" d="M382 219L383 220L382 219z"/>
<path style="fill:#b9906d; stroke:none;" d="M400 219L401 220L400 219z"/>
<path style="fill:#675652; stroke:none;" d="M405.333 219.667L405.667 220.333L405.333 219.667z"/>
<path style="fill:#b9906d; stroke:none;" d="M409 219L408 223L409 223L409 219M413 219L414 220L413 219M420 219L421 220L420 219z"/>
<path style="fill:#708bac; stroke:none;" d="M433 219L434 220L433 219z"/>
<path style="fill:#b9906d; stroke:none;" d="M434 219L435 220L434 219M436 219L437 220L436 219z"/>
<path style="fill:#675652; stroke:none;" d="M442 219L443 220L442 219M372 220L373 221L372 220z"/>
<path style="fill:#b9906d; stroke:none;" d="M382 220L383 221L382 220z"/>
<path style="fill:#708bac; stroke:none;" d="M397 220L396 223L397 220z"/>
<path style="fill:#675652; stroke:none;" d="M400.333 220.667L400.667 221.333L400.333 220.667z"/>
<path style="fill:#b9906d; stroke:none;" d="M406 220L407 223L406 220z"/>
<path style="fill:#708bac; stroke:none;" d="M407 220L408 221L407 220M409 220L410 221L409 220z"/>
<path style="fill:#c7b7a2; stroke:none;" d="M410 220L409 223L412 221L410 220z"/>
<path style="fill:#b9906d; stroke:none;" d="M411 220L412 221L411 220z"/>
<path style="fill:#708bac; stroke:none;" d="M414 220L415 221L414 220M418 220L419 221L418 220M421 220L422 221L421 220z"/>
<path style="fill:#b9906d; stroke:none;" d="M423.333 220.667L423.667 221.333L423.333 220.667z"/>
<path style="fill:#675652; stroke:none;" d="M424 220L425 221L424 220z"/>
<path style="fill:#708bac; stroke:none;" d="M425 220L426 221L425 220z"/>
<path style="fill:#b9906d; stroke:none;" d="M372 221L372 222L376 222L372 221z"/>
<path style="fill:#675652; stroke:none;" d="M383 221L384 222L383 221M391 221L392 222L391 221z"/>
<path style="fill:#708bac; stroke:none;" d="M392 221L393 222L392 221z"/>
<path style="fill:#c7b7a2; stroke:none;" d="M407.333 221.667L407.667 222.333L407.333 221.667z"/>
<path style="fill:#b9906d; stroke:none;" d="M412 221L413 222L412 221M417 221L418 222L417 221z"/>
<path style="fill:#675652; stroke:none;" d="M418 221L419 222L418 221M422 221L423 222L422 221z"/>
<path style="fill:#b9906d; stroke:none;" d="M425 221L426 222L425 221M433 221L434 222L433 221z"/>
<path style="fill:#708bac; stroke:none;" d="M436 221L437 222L436 221M276.333 222.667L276.667 223.333L276.333 222.667M279 222L280 223L279 222z"/>
<path style="fill:#b9906d; stroke:none;" d="M320.333 222.667L320.667 223.333L320.333 222.667z"/>
<path style="fill:#675652; stroke:none;" d="M374 222L375 223L374 222M380 222L381 223L380 222z"/>
<path style="fill:#b9906d; stroke:none;" d="M381 222L382 223L381 222z"/>
<path style="fill:#708bac; stroke:none;" d="M391 222L392 223L391 222z"/>
<path style="fill:#b9906d; stroke:none;" d="M393 222L394 223L393 222z"/>
<path style="fill:#675652; stroke:none;" d="M394.667 222.333L395.333 222.667L394.667 222.333z"/>
<path style="fill:#9e5a5a; stroke:none;" d="M400 222L401 223L400 222z"/>
<path style="fill:#708bac; stroke:none;" d="M410 222L411 223L410 222z"/>
<path style="fill:#b9906d; stroke:none;" d="M411 222L412 223L411 222z"/>
<path style="fill:#675652; stroke:none;" d="M413 222L414 223L413 222z"/>
<path style="fill:#b9906d; stroke:none;" d="M415.333 222.667L415.667 223.333L415.333 222.667M421 222L422 223L421 222z"/>
<path style="fill:#708bac; stroke:none;" d="M422 222L423 223L422 222z"/>
<path style="fill:#b9906d; stroke:none;" d="M279 223L280 224L279 223M315 223L315 241L316 241L315 223M373 223L374 226L373 223M379 223L380 224L379 223M389 223L388 225L389 223M396 223L397 224L396 223M400.333 223.667L400.667 224.333L400.333 223.667z"/>
<path style="fill:#675652; stroke:none;" d="M406 223L407 224L406 223z"/>
<path style="fill:#708bac; stroke:none;" d="M407 223L407 224L410 224L407 223M418 223L419 224L418 223z"/>
<path style="fill:#b9906d; stroke:none;" d="M419 223L421 225L419 223z"/>
<path style="fill:#708bac; stroke:none;" d="M423 223L424 224L423 223z"/>
<path style="fill:#b9906d; stroke:none;" d="M424 223L425 224L424 223z"/>
<path style="fill:#675652; stroke:none;" d="M433 223L434 224L433 223z"/>
<path style="fill:#b9906d; stroke:none;" d="M378 224L379 225L378 224z"/>
<path style="fill:#708bac; stroke:none;" d="M416 224L416 227L417 227L416 224z"/>
<path style="fill:#675652; stroke:none;" d="M419 224L420 227L421 227L419 224M422 224L423 225L422 224z"/>
<path style="fill:#b9906d; stroke:none;" d="M423 224L424 225L423 224z"/>
<path style="fill:#9e5a5a; stroke:none;" d="M278 225L279 226L278 225z"/>
<path style="fill:#b9906d; stroke:none;" d="M321.333 225.667L321.667 226.333L321.333 225.667z"/>
<path style="fill:#675652; stroke:none;" d="M374 225L375 226L374 225z"/>
<path style="fill:#b9906d; stroke:none;" d="M380 225L381 226L380 225z"/>
<path style="fill:#708bac; stroke:none;" d="M381 225L382 226L381 225z"/>
<path style="fill:#b9906d; stroke:none;" d="M418 225L421 228L418 225z"/>
<path style="fill:#708bac; stroke:none;" d="M419 225L420 226L419 225M423 225L424 226L423 225z"/>
<path style="fill:#b9906d; stroke:none;" d="M278.333 226.667L278.667 227.333L278.333 226.667z"/>
<path style="fill:#9e5a5a; stroke:none;" d="M375 226L376 227L375 226z"/>
<path style="fill:#675652; stroke:none;" d="M381 226L382 227L381 226z"/>
<path style="fill:#b9906d; stroke:none;" d="M396 226L395 230L396 230L396 226M399 226C396.086 235.601 372.314 230.449 365 228C367.363 235.12 394.982 235.572 399 230L400 233L405 231C406.577 233.903 409.935 233.065 412 231L406 231L406 227L405 227C402.757 230.802 401.06 229.029 399 226z"/>
<path style="fill:#675652; stroke:none;" d="M417 226L418 227L417 226z"/>
<path style="fill:#c7b7a2; stroke:none;" d="M418 226L419 227L418 226z"/>
<path style="fill:#b9906d; stroke:none;" d="M422 226L423 227L422 226z"/>
<path style="fill:#675652; stroke:none;" d="M375 227L376 228L375 227M380 227L381 228L380 227z"/>
<path style="fill:#708bac; stroke:none;" d="M391 227L390 229L391 227M418.667 227.333L419.333 227.667L418.667 227.333z"/>
<path style="fill:#b9906d; stroke:none;" d="M374 228L375 229L374 228M415.333 228.667L415.667 229.333L415.333 228.667z"/>
<path style="fill:#9e5a5a; stroke:none;" d="M277 229L278 230L277 229z"/>
<path style="fill:#b9906d; stroke:none;" d="M322.333 229.667L322.667 230.333L322.333 229.667M389 229L390 230L389 229z"/>
<path style="fill:#708bac; stroke:none;" d="M438 229L439 230L438 229z"/>
<path style="fill:#9e5a5a; stroke:none;" d="M0 230L0 236L24 235L0 230z"/>
<path style="fill:#b9906d; stroke:none;" d="M277 230L278 231L277 230z"/>
<path style="fill:#675652; stroke:none;" d="M399 230L398 233L399 230z"/>
<path style="fill:#b9906d; stroke:none;" d="M413 230L426 232L426 231L413 230M432 230L433 231L432 230z"/>
<path style="fill:#708bac; stroke:none;" d="M414 233L414 234L437 231L414 233z"/>
<path style="fill:#675652; stroke:none;" d="M404.333 231.667L404.667 232.333L404.333 231.667z"/>
<path style="fill:#9e5a5a; stroke:none;" d="M424 231L425 232L424 231z"/>
<path style="fill:#675652; stroke:none;" d="M427 231L427 232L431 232L427 231z"/>
<path style="fill:#9e5a5a; stroke:none;" d="M276 232L277 233L276 232M366 232L367 233L366 232z"/>
<path style="fill:#675652; stroke:none;" d="M367 232L367 233L372 233L367 232z"/>
<path style="fill:#9e5a5a; stroke:none;" d="M372.667 232.333L373.333 232.667L372.667 232.333z"/>
<path style="fill:#c7b7a2; stroke:none;" d="M383 232L383 233L387 233L383 232M406 232L407 233L406 232z"/>
<path style="fill:#675652; stroke:none;" d="M411 232L411 233L419 233L411 232M420 232L421 233L420 232z"/>
<path style="fill:#b9906d; stroke:none;" d="M323 233L321 240L322 240L325 238L323 233z"/>
<path style="fill:#708bac; stroke:none;" d="M367 233L368 238L378 238L377 235L384 234L367 233z"/>
<path style="fill:#675652; stroke:none;" d="M384 233L384 234L395 234L384 233z"/>
<path style="fill:#708bac; stroke:none;" d="M391 234C394.418 237.597 408.15 234.916 413 234L391 234M433 233L434 234L433 233M24 234L24 235L29 235L24 234z"/>
<path style="fill:#9e5a5a; stroke:none;" d="M29 234L29 235L32 235L29 234z"/>
<path style="fill:#708bac; stroke:none;" d="M32.6667 234.333L33.3333 234.667L32.6667 234.333M208 235L208 236L272 236L254 234.965L208 235z"/>
<path style="fill:#9e5a5a; stroke:none;" d="M274.667 234.333L275.333 234.667L274.667 234.333z"/>
<path style="fill:#c7b7a2; stroke:none;" d="M374 234L375 235L374 234z"/>
<path style="fill:#708bac; stroke:none;" d="M387 234L388 235L387 234z"/>
<path style="fill:#c7b7a2; stroke:none;" d="M392 234L393 235L392 234z"/>
<path style="fill:#708bac; stroke:none;" d="M437 234L436 236L438 236L437 234M273 235L274 236L273 235z"/>
<path style="fill:#b9906d; stroke:none;" d="M367 235L368 236L367 235z"/>
<path style="fill:#708bac; stroke:none;" d="M418 236L419 237L418 236M431 236L431 237L434 237L431 236z"/>
<path style="fill:#b9906d; stroke:none;" d="M434.667 236.333L435.333 236.667L434.667 236.333z"/>
<path style="fill:#708bac; stroke:none;" d="M407.667 237.333L408.333 237.667L407.667 237.333M411 237L411 238L416 239L411 237M428 237L429 238L428 237z"/>
<path style="fill:#675652; stroke:none;" d="M429 237L430 238L429 237z"/>
<path style="fill:#b9906d; stroke:none;" d="M430 237L431 238L430 237z"/>
<path style="fill:#c7b7a2; stroke:none;" d="M14 244C21.245 245.98 28.4069 244.327 35 241C28.2602 237.338 17.4888 235.599 14 244z"/>
<path style="fill:#b9906d; stroke:none;" d="M368 238L369 239L368 238z"/>
<path style="fill:#675652; stroke:none;" d="M369 238L369 239L382 239L369 238z"/>
<path style="fill:#708bac; stroke:none;" d="M382 238L382 239L402 239L382 238z"/>
<path style="fill:#675652; stroke:none;" d="M402 238L403 239L402 238z"/>
<path style="fill:#708bac; stroke:none;" d="M403 238L404 239L403 238z"/>
<path style="fill:#b9906d; stroke:none;" d="M404 238L405 239L404 238z"/>
<path style="fill:#675652; stroke:none;" d="M405 238L405 239L412 239L405 238z"/>
<path style="fill:#b9906d; stroke:none;" d="M413.667 238.333L414.333 238.667L413.667 238.333z"/>
<path style="fill:#675652; stroke:none;" d="M416 238L416 239L420 239L416 238z"/>
<path style="fill:#708bac; stroke:none;" d="M420 238L420 239L423 239L420 238z"/>
<path style="fill:#675652; stroke:none;" d="M423.667 238.333L424.333 238.667L423.667 238.333z"/>
<path style="fill:#708bac; stroke:none;" d="M425 238L426 239L425 238z"/>
<path style="fill:#b9906d; stroke:none;" d="M427 238L428 239L427 238M383.667 239.333L384.333 239.667L383.667 239.333M323.667 240.333L324.333 240.667L323.667 240.333M316 241L317 242L316 241M325 241L326 242L325 241M58 242L57 244L59 244L58 242M60 242L61 243L60 242M310.333 242.667L310.667 243.333L310.333 242.667M318.667 242.333L319.333 242.667L318.667 242.333M390 242L391 245L392 245L390 242M320.667 243.333L321.333 243.667L320.667 243.333M326 243L325 246L326 243M393 243L394 244L393 243M399 243L402 245L402 244L399 243M323 244L324 245L323 244z"/>
<path style="fill:#708bac; stroke:none;" d="M399 244L400 245L399 244z"/>
<path style="fill:#b9906d; stroke:none;" d="M431 244L432 245L431 244M427 246L429 248L427 246z"/>
<path style="fill:#708bac; stroke:none;" d="M426 247L427 252L426 247z"/>
<path style="fill:#c7b7a2; stroke:none;" d="M427 247L428 248L427 247z"/>
<path style="fill:#b9906d; stroke:none;" d="M431 247L432 248L431 247M430 248L431 251L430 248z"/>
<path style="fill:#675652; stroke:none;" d="M414 249L415 250L414 249z"/>
<path style="fill:#708bac; stroke:none;" d="M415.333 249.667L415.667 250.333L415.333 249.667z"/>
<path style="fill:#675652; stroke:none;" d="M416 250L419 254L416 250z"/>
<path style="fill:#b9906d; stroke:none;" d="M417 250L418 251L417 250z"/>
<path style="fill:#708bac; stroke:none;" d="M422 250L419 251L415 255L415 259L417 256L420 257L419 254L421 255L420 253L423 254L422 250z"/>
<path style="fill:#b9906d; stroke:none;" d="M413 251L414 252L413 251M422.333 251.667L422.667 252.333L422.333 251.667z"/>
<path style="fill:#675652; stroke:none;" d="M428 251L429 252L428 251z"/>
<path style="fill:#708bac; stroke:none;" d="M415 252L415 254L417 254L417 252L415 252z"/>
<path style="fill:#c7b7a2; stroke:none;" d="M419 252L420 253L419 252z"/>
<path style="fill:#675652; stroke:none;" d="M427 252L428 253L427 252z"/>
<path style="fill:#b9906d; stroke:none;" d="M417 253L418 254L417 253z"/>
<path style="fill:#c7b7a2; stroke:none;" d="M420 253L421 254L420 253z"/>
<path style="fill:#b9906d; stroke:none;" d="M421 253L422 254L421 253z"/>
<path style="fill:#708bac; stroke:none;" d="M426 253L426 254L429 254L426 253z"/>
<path style="fill:#c7b7a2; stroke:none;" d="M419.333 254.667L419.667 255.333L419.333 254.667z"/>
<path style="fill:#b9906d; stroke:none;" d="M422 254L423 255L422 254M426 254L427 255L426 254M420 255L421 256L420 255z"/>
<path style="fill:#675652; stroke:none;" d="M425 255L426 256L425 255z"/>
<path style="fill:#b9906d; stroke:none;" d="M50 256L51 257L50 256M417.667 256.333L418.333 256.667L417.667 256.333M424 256L425 257L424 256z"/>
<path style="fill:#708bac; stroke:none;" d="M429 256L430 257L429 256z"/>
<path style="fill:#b9906d; stroke:none;" d="M378 257L379 258L378 257z"/>
<path style="fill:#675652; stroke:none;" d="M379 257L378 258L378 260L382 261L381 257L379 257z"/>
<path style="fill:#b9906d; stroke:none;" d="M410 257L411 258L410 257M419 257L420 258L419 257M428 257L429 258L428 257M391 258L390 261L391 258z"/>
<path style="fill:#675652; stroke:none;" d="M427.667 258.333L428.333 258.667L427.667 258.333z"/>
<path style="fill:#b9906d; stroke:none;" d="M32 259L33 260L32 259M48 259L49 260L48 259z"/>
<path style="fill:#675652; stroke:none;" d="M392 259L393 260L392 259z"/>
<path style="fill:#b9906d; stroke:none;" d="M408 259L409 260L408 259M415.333 259.667L415.667 260.333L415.333 259.667M422 259L420 262L422 259z"/>
<path style="fill:#675652; stroke:none;" d="M393 260L394 261L393 260z"/>
<path style="fill:#708bac; stroke:none;" d="M394 260L395 261L394 260z"/>
<path style="fill:#b9906d; stroke:none;" d="M395 260L396 261L395 260M401 260L402 261L401 260M32 261L33 262L32 261M378 261L378 264L379 264L378 261z"/>
<path style="fill:#c7b7a2; stroke:none;" d="M379 261L380 262L379 261z"/>
<path style="fill:#708bac; stroke:none;" d="M378 262L378 263L383 263L378 262M388 261L389 262L388 261M407 261L409 263L407 261M426 261L427 262L426 261z"/>
<path style="fill:#b9906d; stroke:none;" d="M427 261L428 262L427 261M386.667 262.333L387.333 262.667L386.667 262.333z"/>
<path style="fill:#675652; stroke:none;" d="M407 262L408 263L407 262M420.333 262.667L420.667 263.333L420.333 262.667z"/>
<path style="fill:#b9906d; stroke:none;" d="M426 262L427 263L426 262M383 263L384 264L383 263M385 263L386 264L385 263M405.667 263.333L406.333 263.667L405.667 263.333z"/>
<path style="fill:#708bac; stroke:none;" d="M379 264L381 266L379 264M381 264L382 265L381 264z"/>
<path style="fill:#b9906d; stroke:none;" d="M397 264L398 265L397 264z"/>
<path style="fill:#708bac; stroke:none;" d="M397 267L394 266L394 267L405 266L406 266L406 269L407 269L407 264L397 267M420 264L421 265L420 264z"/>
<path style="fill:#675652; stroke:none;" d="M379 265L380 266L379 265z"/>
<path style="fill:#c7b7a2; stroke:none;" d="M404 265L405 266L404 265z"/>
<path style="fill:#b9906d; stroke:none;" d="M418 265L417 267L418 265M420.333 265.667L420.667 266.333L420.333 265.667z"/>
<path style="fill:#708bac; stroke:none;" d="M424.667 265.333L425.333 265.667L424.667 265.333M428 265L429 266L428 265z"/>
<path style="fill:#b9906d; stroke:none;" d="M299 283L299 284L301 294L301 295L299 297L303 297L303 298L294 300L294 299L296 299L296 298L262 298L262 300L280 303L287 304L288 304L291 304C294.244 303.141 295.116 303.791 296 307L300 305L301 310L306 312L307 312L308 312L312 312L326 314L338 311L341 315L349 308L348 304C356.14 307.917 385.225 310.878 390 302L388 305L384 304C384 306.692 372.427 305 369 305C356.888 305 347.922 304.88 345 291L342 292L341 288L340 288L335 293L336 288L332 288L332 291L330 290L329 293L328 293L327 288L325 288L322 292L322 288L318 290L320 287L320 286L320 279L311 290L310 290L315 276L312 281L307 287L306 287C307.694 278.792 307.776 267.333 318 267L318 266L307 266L309 269L304 270L306 267C297.268 263.683 301.457 278.64 299 283M322 266L323 267L322 266M325 266L325 267L329 267L325 266M330 266L331 267L330 266z"/>
<path style="fill:#675652; stroke:none;" d="M396 266L397 267L396 266z"/>
<path style="fill:#c7b7a2; stroke:none;" d="M398 266L399 267L398 266M405.333 266.667L405.667 267.333L405.333 266.667z"/>
<path style="fill:#b9906d; stroke:none;" d="M423 268L426 267L423 268M429 266L430 267L429 266z"/>
<path style="fill:#9e5a5a; stroke:none;" d="M304 267L304 270L309 268L304 267z"/>
<path style="fill:#675652; stroke:none;" d="M394 267L395 268L394 267z"/>
<path style="fill:#708bac; stroke:none;" d="M428 267L429 268L428 267z"/>
<path style="fill:#675652; stroke:none;" d="M429 267L430 268L429 267z"/>
<path style="fill:#b9906d; stroke:none;" d="M47 268L46 271L47 268z"/>
<path style="fill:#9e5a5a; stroke:none;" d="M302.667 268.333L303.333 268.667L302.667 268.333z"/>
<path style="fill:#708bac; stroke:none;" d="M382 268L383 269L382 268z"/>
<path style="fill:#b9906d; stroke:none;" d="M400 268L402 270L400 268M403 268L404 269L403 268M405 268L406 269L405 268M416 268L417 269L416 268z"/>
<path style="fill:#708bac; stroke:none;" d="M421 268L420 270L421 268z"/>
<path style="fill:#b9906d; stroke:none;" d="M424 268L425 269L424 268M380 269L381 270L380 269M382 269L383 270L382 269M406 269L407 270L406 269z"/>
<path style="fill:#675652; stroke:none;" d="M415 269L416 270L415 269M421 269L422 270L421 269z"/>
<path style="fill:#b9906d; stroke:none;" d="M419 271L419 272L425 272L419 271z"/>
<path style="fill:#708bac; stroke:none;" d="M429 269L430 270L429 269z"/>
<path style="fill:#9e5a5a; stroke:none;" d="M303 270L306 274L309 270L303 270z"/>
<path style="fill:#b9906d; stroke:none;" d="M404 270L405 271L404 270M414 270L415 271L414 270z"/>
<path style="fill:#708bac; stroke:none;" d="M415 270L416 271L415 270z"/>
<path style="fill:#c7b7a2; stroke:none;" d="M422 270L421 272L422 270z"/>
<path style="fill:#b9906d; stroke:none;" d="M427.667 270.333L428.333 270.667L427.667 270.333M402 271L403 272L402 271z"/>
<path style="fill:#675652; stroke:none;" d="M412 272L412 273L416 273L412 272z"/>
<path style="fill:#708bac; stroke:none;" d="M423 271L424 272L423 271z"/>
<path style="fill:#b9906d; stroke:none;" d="M381 272L382 273L381 272z"/>
<path style="fill:#708bac; stroke:none;" d="M382 272L383 273L382 272z"/>
<path style="fill:#b9906d; stroke:none;" d="M383.667 272.333L384.333 272.667L383.667 272.333z"/>
<path style="fill:#708bac; stroke:none;" d="M385 272L386 273L385 272z"/>
<path style="fill:#b9906d; stroke:none;" d="M386.667 272.333L387.333 272.667L386.667 272.333z"/>
<path style="fill:#675652; stroke:none;" d="M388.667 272.333L389.333 272.667L388.667 272.333z"/>
<path style="fill:#b9906d; stroke:none;" d="M390 272L390 273L394 273L390 272M405 272L401 273L401 274L405 272M408 272L408 273L411 273L408 272z"/>
<path style="fill:#708bac; stroke:none;" d="M411 272L412 273L411 272z"/>
<path style="fill:#b9906d; stroke:none;" d="M416.667 272.333L417.333 272.667L416.667 272.333z"/>
<path style="fill:#675652; stroke:none;" d="M418.667 272.333L419.333 272.667L418.667 272.333z"/>
<path style="fill:#b9906d; stroke:none;" d="M395 273L396 274L395 273z"/>
<path style="fill:#708bac; stroke:none;" d="M396 273L397 274L396 273z"/>
<path style="fill:#675652; stroke:none;" d="M397 273L398 274L397 273z"/>
<path style="fill:#708bac; stroke:none;" d="M398 273L398 274L401 274L398 273z"/>
<path style="fill:#b9906d; stroke:none;" d="M414.667 273.333L415.333 273.667L414.667 273.333M55 275L56 276L55 275z"/>
<path style="fill:#9e5a5a; stroke:none;" d="M304 275L305 276L304 275M306 275L306 278L307 278L306 275z"/>
<path style="fill:#b9906d; stroke:none;" d="M428 275L426 276L426 277L428 275M337.333 276.667L337.667 277.333L337.333 276.667z"/>
<path style="fill:#c7b7a2; stroke:none;" d="M39.6667 277.333L40.3333 277.667L39.6667 277.333z"/>
<path style="fill:#b9906d; stroke:none;" d="M421.667 277.333L422.333 277.667L421.667 277.333z"/>
<path style="fill:#708bac; stroke:none;" d="M423 277L424 278L423 277z"/>
<path style="fill:#b9906d; stroke:none;" d="M424 277L425 278L424 277z"/>
<path style="fill:#708bac; stroke:none;" d="M416 278L417 279L416 278z"/>
<path style="fill:#b9906d; stroke:none;" d="M417 278L418 279L417 278z"/>
<path style="fill:#675652; stroke:none;" d="M418 278L419 279L418 278z"/>
<path style="fill:#708bac; stroke:none;" d="M419 278L420 279L419 278z"/>
<path style="fill:#b9906d; stroke:none;" d="M339 279L340 280L339 279M384.667 279.333L385.333 279.667L384.667 279.333z"/>
<path style="fill:#708bac; stroke:none;" d="M386 279L387 280L386 279z"/>
<path style="fill:#675652; stroke:none;" d="M387.667 279.333L388.333 279.667L387.667 279.333z"/>
<path style="fill:#b9906d; stroke:none;" d="M389 279L389 280L392 280L389 279z"/>
<path style="fill:#9e5a5a; stroke:none;" d="M392 279L393 280L392 279z"/>
<path style="fill:#b9906d; stroke:none;" d="M393 279L393 280L397 280L393 279z"/>
<path style="fill:#675652; stroke:none;" d="M397 279L398 280L397 279z"/>
<path style="fill:#708bac; stroke:none;" d="M398.667 279.333L399.333 279.667L398.667 279.333z"/>
<path style="fill:#b9906d; stroke:none;" d="M400 279L400 280L407 280L400 279M410 279L411 280L410 279z"/>
<path style="fill:#675652; stroke:none;" d="M411 279L411 280L414 280L411 279z"/>
<path style="fill:#b9906d; stroke:none;" d="M414.667 279.333L415.333 279.667L414.667 279.333M424 279L425 280L424 279z"/>
<path style="fill:#708bac; stroke:none;" d="M424 280L422 284L424 282L425 282L425 286L426 286L427 282L424 280z"/>
<path style="fill:#675652; stroke:none;" d="M392 282C394.654 284.333 396.177 284.02 398 281L392 282z"/>
<path style="fill:#b9906d; stroke:none;" d="M336 282L335 287L336 287L336 282z"/>
<path style="fill:#708bac; stroke:none;" d="M393 282L394 283L393 282z"/>
<path style="fill:#b9906d; stroke:none;" d="M398 282L399 283L398 282z"/>
<path style="fill:#675652; stroke:none;" d="M424 282L424 287L425 287L424 282z"/>
<path style="fill:#b9906d; stroke:none;" d="M385 283L386 284L385 283z"/>
<path style="fill:#708bac; stroke:none;" d="M386 283L389 286L389 285L386 283z"/>
<path style="fill:#675652; stroke:none;" d="M387 283L389 285L389 286L387 288L393 288L387 283z"/>
<path style="fill:#708bac; stroke:none;" d="M391.667 283.333L392.333 283.667L391.667 283.333M397 283L398 284L397 283z"/>
<path style="fill:#675652; stroke:none;" d="M416 283L414 288L421 289L422 285L419 287L418 283L416 283z"/>
<path style="fill:#b9906d; stroke:none;" d="M426 283L427 284L426 283M341.333 284.667L341.667 285.333L341.333 284.667M391 284L392 285L391 284z"/>
<path style="fill:#708bac; stroke:none;" d="M393 284L394 285L393 284M395 284L396 285L395 284z"/>
<path style="fill:#b9906d; stroke:none;" d="M405 284L406 285L405 284z"/>
<path style="fill:#675652; stroke:none;" d="M401 287L402 290L397 285C397.96 289.712 400.039 292.182 405 292L404 288L405 288L408 294L413 293L413 290L408 289L410 284L401 287z"/>
<path style="fill:#708bac; stroke:none;" d="M396 285L397 286L396 285M406 285L405 288L406 288L406 285M408 285L409 286L408 285M414 285L415 286L414 285M419.333 285.667L419.667 286.333L419.333 285.667z"/>
<path style="fill:#b9906d; stroke:none;" d="M392 286L393 287L392 286M396 286L397 287L396 286z"/>
<path style="fill:#708bac; stroke:none;" d="M400 286L402 290L400 286M409 286L410 287L409 286z"/>
<path style="fill:#c7b7a2; stroke:none;" d="M39 287L39 288L42 289L42 288L42 287L39 287z"/>
<path style="fill:#708bac; stroke:none;" d="M388 287L389 288L388 287M416 287L417 288L416 287z"/>
<path style="fill:#b9906d; stroke:none;" d="M424 287L425 288L424 287M388 288L389 289L388 288M397 288L398 289L397 288M404 288L405 289L404 288M408 288L408 289L411 289L408 288M413.667 288.333L414.333 288.667L413.667 288.333M418 288L419 289L418 288z"/>
<path style="fill:#708bac; stroke:none;" d="M421 288L422 289L421 288M399 289L400 290L399 289z"/>
<path style="fill:#c7b7a2; stroke:none;" d="M404 289L404 293L407 293L407 292L404 289z"/>
<path style="fill:#708bac; stroke:none;" d="M424 289L425 290L424 289z"/>
<path style="fill:#c7b7a2; stroke:none;" d="M317 290L318 291L317 290z"/>
<path style="fill:#708bac; stroke:none;" d="M409 290L410 291L409 290z"/>
<path style="fill:#b9906d; stroke:none;" d="M420 290L421 291L420 290z"/>
<path style="fill:#708bac; stroke:none;" d="M421.667 290.333L422.333 290.667L421.667 290.333z"/>
<path style="fill:#b9906d; stroke:none;" d="M423 290L424 291L423 290z"/>
<path style="fill:#c7b7a2; stroke:none;" d="M320.333 291.667L320.667 292.333L320.333 291.667z"/>
<path style="fill:#b9906d; stroke:none;" d="M399 291L400 292L399 291M406 291L407 292L406 291z"/>
<path style="fill:#708bac; stroke:none;" d="M412 291L413 292L412 291z"/>
<path style="fill:#b9906d; stroke:none;" d="M414 291L415 292L414 291z"/>
<path style="fill:#708bac; stroke:none;" d="M415 291L415 292L420 292L415 291z"/>
<path style="fill:#b9906d; stroke:none;" d="M56 292L54 297C56.4614 295.547 57.3171 294.631 56 292M390.333 292.667L390.667 293.333L390.333 292.667z"/>
<path style="fill:#708bac; stroke:none;" d="M391 292L394 294L391 292z"/>
<path style="fill:#675652; stroke:none;" d="M393 292L393 293L397 293L393 292z"/>
<path style="fill:#708bac; stroke:none;" d="M396 293L396 294L408 294L396 293z"/>
<path style="fill:#c7b7a2; stroke:none;" d="M399.667 292.333L400.333 292.667L399.667 292.333z"/>
<path style="fill:#b9906d; stroke:none;" d="M401 292L402 293L401 292M403 292L404 293L403 292M407 292L408 293L407 292z"/>
<path style="fill:#708bac; stroke:none;" d="M413 292L414 293L413 292M409.667 293.333L410.333 293.667L409.667 293.333M420 293L421 294L420 293z"/>
<path style="fill:#b9906d; stroke:none;" d="M52.3333 294.667L52.6667 295.333L52.3333 294.667z"/>
<path style="fill:#708bac; stroke:none;" d="M391 297L391 298L422 296C414.386 292.043 399.634 296.701 391 297z"/>
<path style="fill:#b9906d; stroke:none;" d="M421 294L421 295L423 296L390 299L390 300L403 300C400.868 303.513 399.316 305.508 402 309L403 309L404 302L408 302L408 303L406 312L409 311C410.383 305.464 414.548 301.284 406 301L406 300L424 298L421 294z"/>
<path style="fill:#708bac; stroke:none;" d="M423 294L424 295L423 294z"/>
<path style="fill:#b9906d; stroke:none;" d="M61 295L58 301L59 301L61 295M256.333 295.667L256.667 296.333L256.333 295.667z"/>
<path style="fill:#675652; stroke:none;" d="M422 295L423 296L422 295M419 296L420 297L419 296z"/>
<path style="fill:#9e5a5a; stroke:none;" d="M420 296L421 297L420 296z"/>
<path style="fill:#b9906d; stroke:none;" d="M257 298L257 299L261 298L257 298M297 297L298 298L297 297z"/>
<path style="fill:#9e5a5a; stroke:none;" d="M298 297L298 299L303 298L298 297z"/>
<path style="fill:#b9906d; stroke:none;" d="M390 297L391 298L390 297z"/>
<path style="fill:#675652; stroke:none;" d="M404 297L404 298L414 298L404 297z"/>
<path style="fill:#9e5a5a; stroke:none;" d="M414.667 297.333L415.333 297.667L414.667 297.333z"/>
<path style="fill:#b9906d; stroke:none;" d="M449 297L451 300L452 299L451 297L449 297M453 302L456 300L457 301L447 308L451 306L451 312L459 314L456 319L466 315L468 323L470 319L475 319L475 322L476 322L478 317L480 319L481 319L483 317L485 322L484 318L491 319L496 311L498 320L504 313L505 313L506 317L507 317L503 301L496 306L495 300L491 306L490 306L490 299L485 304L483 304L482 303C481.72 296.924 467.602 295.179 464 299C459.266 297.516 455.031 296.741 453 302z"/>
<path style="fill:#9e5a5a; stroke:none;" d="M259 298L259 299L262 299L259 298M296.333 298.667L296.667 299.333L296.333 298.667z"/>
<path style="fill:#675652; stroke:none;" d="M297 298L298 299L297 298z"/>
<path style="fill:#c7b7a2; stroke:none;" d="M312.333 298.667L312.667 299.333L312.333 298.667M316 301L344 305L344 303L320 300L320 298L316 301z"/>
<path style="fill:#9e5a5a; stroke:none;" d="M390 298L391 299L390 298z"/>
<path style="fill:#675652; stroke:none;" d="M391 298L391 299L402 299L391 298z"/>
<path style="fill:#9e5a5a; stroke:none;" d="M402 298L402 299L408 299L402 298M273.667 299.333L274.333 299.667L273.667 299.333M277 299L277 300L280 300L277 299M294 299L295 300L294 299z"/>
<path style="fill:#675652; stroke:none;" d="M295 299L296 300L295 299z"/>
<path style="fill:#c7b7a2; stroke:none;" d="M44 300L34 311L35 314L41 312L40 309L45 309L45 308C42.5594 306.17 43.7924 304.448 46 305L44 300z"/>
<path style="fill:#9e5a5a; stroke:none;" d="M286 300L286 301L291 301L286 300z"/>
<path style="fill:#675652; stroke:none;" d="M291 300L292 301L291 300z"/>
<path style="fill:#9e5a5a; stroke:none;" d="M292.667 300.333L293.333 300.667L292.667 300.333z"/>
<path style="fill:#b9906d; stroke:none;" d="M447 304L448 304L450 302L447 304z"/>
<path style="fill:#c7b7a2; stroke:none;" d="M297 302L298 303L297 302z"/>
<path style="fill:#b9906d; stroke:none;" d="M419 305L422 303L419 305M55.3333 304.667L55.6667 305.333L55.3333 304.667z"/>
<path style="fill:#9e5a5a; stroke:none;" d="M352 304L352 305L357 305L352 304M386.667 304.333L387.333 304.667L386.667 304.333M381.667 305.333L382.333 305.667L381.667 305.333z"/>
<path style="fill:#675652; stroke:none;" d="M383 305L384 306L383 305z"/>
<path style="fill:#9e5a5a; stroke:none;" d="M384 305L385 306L384 305z"/>
<path style="fill:#c7b7a2; stroke:none;" d="M485 305L486 306L485 305M34 306L35 307L34 306M26 307L26 309L30 309L30 307L26 307z"/>
<path style="fill:#b9906d; stroke:none;" d="M59 307L60 308L59 307M420 307L421 308L420 307M424 307L424 310L425 310L424 307M56 308L57 309L56 308M416 308L417 309L416 308z"/>
<path style="fill:#c7b7a2; stroke:none;" d="M506 309L507 310L506 309M22 313L25 314L28 311L22 313M31 311L32 312L31 311M506 311L507 312L506 311M13.6667 312.333L14.3333 312.667L13.6667 312.333z"/>
<path style="fill:#b9906d; stroke:none;" d="M48 312L49 313L48 312M54 312L55 313L54 312M45 314L46 315L45 314M48 314L49 315L48 314M311 314L312 315L311 314M454 314L455 315L454 314z"/>
<path style="fill:#c7b7a2; stroke:none;" d="M12 316L12 320L13 320L12 316M33 316L34 317L33 316z"/>
<path style="fill:#b9906d; stroke:none;" d="M51 316L52 317L51 316z"/>
<path style="fill:#c7b7a2; stroke:none;" d="M14 321L14 322L18 320L23 320C19.3059 316.285 17.3715 318.089 14 321M9 319L10 320L9 319z"/>
<path style="fill:#b9906d; stroke:none;" d="M16 319L17 320L16 319M42 319L39 324L40 324L43 320L42 319M456 320L456 321L459 321L456 320z"/>
<path style="fill:#c7b7a2; stroke:none;" d="M9 321L9 322L12 322L9 321z"/>
<path style="fill:#b9906d; stroke:none;" d="M34 321C32.5295 324.192 32.0581 325.811 35 328L34 321M35 323L36 324L35 323M37 323L37 326L38 326L37 323z"/>
<path style="fill:#c7b7a2; stroke:none;" d="M21.6667 324.333L22.3333 324.667L21.6667 324.333z"/>
<path style="fill:#b9906d; stroke:none;" d="M28 328L31 327L28 328M8 329L8 331L10 331L10 329L8 329z"/>
<path style="fill:#c7b7a2; stroke:none;" d="M0 332L3 330L0 332z"/>
<path style="fill:#b9906d; stroke:none;" d="M15 335L16 336L15 335M18 335L19 336L18 335M16 336L16 338L18 338L18 336L16 336z"/>
</svg>
