<?xml version="1.0" encoding="UTF-8"?>
<!DOCTYPE svg PUBLIC "-//W3C//DTD SVG 1.1//EN" "http://www.w3.org/Graphics/SVG/1.1/DTD/svg11.dtd">
<svg xmlns="http://www.w3.org/2000/svg" version="1.1" width="192px" height="192px" style="shape-rendering:geometricPrecision; text-rendering:geometricPrecision; image-rendering:optimizeQuality; fill-rule:evenodd; clip-rule:evenodd" xmlns:xlink="http://www.w3.org/1999/xlink">
<g><path style="opacity:1" fill="#f19b26" d="M 79.5,-0.5 C 110.5,-0.5 141.5,-0.5 172.5,-0.5C 171.954,2.07781 172.621,4.57781 174.5,7C 173.833,8.33333 172.833,9.33333 171.5,10C 174.758,13.0367 175.258,16.2034 173,19.5C 169.784,18.7362 166.951,17.4028 164.5,15.5C 164.038,14.1201 163.038,13.4534 161.5,13.5C 155.046,12.9964 148.38,13.663 141.5,15.5C 138.211,14.6184 134.877,13.9517 131.5,13.5C 127.238,14.388 123.072,14.7213 119,14.5C 117.667,13.1667 116.333,11.8333 115,10.5C 114.632,11.91 113.799,12.91 112.5,13.5C 110.724,9.86138 108.39,9.52805 105.5,12.5C 103.997,11.9478 102.331,11.9478 100.5,12.5C 100.657,11.1266 100.49,9.79323 100,8.5C 99.6667,8.83333 99.3333,9.16667 99,9.5C 97.6012,8.77338 96.1012,8.27338 94.5,8C 95,7.5 95.5,7 96,6.5C 97.3561,7.38017 98.8561,7.71351 100.5,7.5C 100.649,6.44802 100.483,5.44802 100,4.5C 97.6308,5.11008 95.1308,5.27674 92.5,5C 93.4506,5.71752 93.6172,6.55085 93,7.5C 91.4452,5.85421 89.7785,5.52087 88,6.5C 86.6532,2.62502 85.4865,2.62502 84.5,6.5C 82.5907,4.3512 80.924,2.01787 79.5,-0.5 Z"/></g>
<g><path style="opacity:1" fill="#eb9411" d="M -0.5,-0.5 C 26.1667,-0.5 52.8333,-0.5 79.5,-0.5C 80.924,2.01787 82.5907,4.3512 84.5,6.5C 85.4865,2.62502 86.6532,2.62502 88,6.5C 89.7785,5.52087 91.4452,5.85421 93,7.5C 93.6172,6.55085 93.4506,5.71752 92.5,5C 95.1308,5.27674 97.6308,5.11008 100,4.5C 100.483,5.44802 100.649,6.44802 100.5,7.5C 98.8561,7.71351 97.3561,7.38017 96,6.5C 95.5,7 95,7.5 94.5,8C 96.1012,8.27338 97.6012,8.77338 99,9.5C 99.3333,9.16667 99.6667,8.83333 100,8.5C 100.49,9.79323 100.657,11.1266 100.5,12.5C 102.331,11.9478 103.997,11.9478 105.5,12.5C 108.39,9.52805 110.724,9.86138 112.5,13.5C 113.799,12.91 114.632,11.91 115,10.5C 116.333,11.8333 117.667,13.1667 119,14.5C 123.072,14.7213 127.238,14.388 131.5,13.5C 134.877,13.9517 138.211,14.6184 141.5,15.5C 148.38,13.663 155.046,12.9964 161.5,13.5C 163.038,13.4534 164.038,14.1201 164.5,15.5C 145.002,15.8207 125.502,16.154 106,16.5C 103.966,16.6464 102.299,15.9797 101,14.5C 98.5991,15.6023 96.0991,15.769 93.5,15C 88.6816,12.9352 83.6816,11.4352 78.5,10.5C 75.4501,13.525 71.7834,15.1917 67.5,15.5C 64.7531,14.7806 62.0865,14.7806 59.5,15.5C 58.5224,15.0233 57.6891,14.3567 57,13.5C 50.821,14.133 44.4877,14.4663 38,14.5C 36.8061,13.5697 35.4728,12.9031 34,12.5C 30.7493,13.0683 27.5826,13.9016 24.5,15C 18.487,15.0085 12.6536,15.8419 7,17.5C 6.66667,17.1667 6.33333,16.8333 6,16.5C 4.03406,18.8199 1.86739,20.8199 -0.5,22.5C -0.5,14.8333 -0.5,7.16667 -0.5,-0.5 Z"/></g>
<g><path style="opacity:1" fill="#0e2145" d="M 42.5,21.5 C 56.8333,21.5 71.1667,21.5 85.5,21.5C 90.8333,22.8333 96.1667,22.8333 101.5,21.5C 116.5,21.5 131.5,21.5 146.5,21.5C 147.458,23.3024 148.125,25.3024 148.5,27.5C 148.806,30.3854 148.473,33.0521 147.5,35.5C 147.167,35.5 146.833,35.5 146.5,35.5C 146.5,34.5 146.5,33.5 146.5,32.5C 146.5,30.1667 146.5,27.8333 146.5,25.5C 144.807,23.2336 142.64,22.9003 140,24.5C 107.223,24.1704 74.7227,23.1704 42.5,21.5 Z"/></g>
<g><path style="opacity:1" fill="#d5810c" d="M 172.5,-0.5 C 178.833,-0.5 185.167,-0.5 191.5,-0.5C 191.5,63.5 191.5,127.5 191.5,191.5C 188.833,191.5 186.167,191.5 183.5,191.5C 183.667,139.166 183.5,86.8323 183,34.5C 181.67,27.6695 177.837,22.8361 171.5,20C 161.991,19.1757 152.657,19.3424 143.5,20.5C 129.421,20.8151 115.421,20.4818 101.5,19.5C 97.7905,17.8643 93.7905,17.1977 89.5,17.5C 86.9611,15.7675 83.9611,14.7675 80.5,14.5C 78.6666,15.0521 76.9999,15.8855 75.5,17C 54.1649,17.1142 32.8315,17.1142 11.5,17C 8.01695,17.9847 5.68362,20.1514 4.5,23.5C 2.41591,25.5764 0.749245,27.9097 -0.5,30.5C -0.5,27.8333 -0.5,25.1667 -0.5,22.5C 1.86739,20.8199 4.03406,18.8199 6,16.5C 6.33333,16.8333 6.66667,17.1667 7,17.5C 12.6536,15.8419 18.487,15.0085 24.5,15C 27.5826,13.9016 30.7493,13.0683 34,12.5C 35.4728,12.9031 36.8061,13.5697 38,14.5C 44.4877,14.4663 50.821,14.133 57,13.5C 57.6891,14.3567 58.5224,15.0233 59.5,15.5C 62.0865,14.7806 64.7531,14.7806 67.5,15.5C 71.7834,15.1917 75.4501,13.525 78.5,10.5C 83.6816,11.4352 88.6816,12.9352 93.5,15C 96.0991,15.769 98.5991,15.6023 101,14.5C 102.299,15.9797 103.966,16.6464 106,16.5C 125.502,16.154 145.002,15.8207 164.5,15.5C 166.951,17.4028 169.784,18.7362 173,19.5C 175.258,16.2034 174.758,13.0367 171.5,10C 172.833,9.33333 173.833,8.33333 174.5,7C 172.621,4.57781 171.954,2.07781 172.5,-0.5 Z"/></g>
<g><path style="opacity:1" fill="#6c3d32" d="M 101.5,19.5 C 115.421,20.4818 129.421,20.8151 143.5,20.5C 144.791,20.2627 145.791,20.596 146.5,21.5C 131.5,21.5 116.5,21.5 101.5,21.5C 101.5,20.8333 101.5,20.1667 101.5,19.5 Z"/></g>
<g><path style="opacity:1" fill="#422a33" d="M 85.5,20.5 C 85.5,20.8333 85.5,21.1667 85.5,21.5C 71.1667,21.5 56.8333,21.5 42.5,21.5C 41.8333,21.8333 41.1667,22.1667 40.5,22.5C 55.1294,20.5163 70.1294,19.8497 85.5,20.5 Z"/></g>
<g><path style="opacity:1" fill="#0f1019" d="M 89.5,17.5 C 93.7905,17.1977 97.7905,17.8643 101.5,19.5C 101.5,20.1667 101.5,20.8333 101.5,21.5C 96.1667,22.8333 90.8333,22.8333 85.5,21.5C 85.5,21.1667 85.5,20.8333 85.5,20.5C 85.5,20.1667 85.5,19.8333 85.5,19.5C 86.8333,18.8333 88.1667,18.1667 89.5,17.5 Z"/></g>
<g><path style="opacity:1" fill="#c57204" d="M 89.5,17.5 C 88.1667,18.1667 86.8333,18.8333 85.5,19.5C 68.1667,19.5 50.8333,19.5 33.5,19.5C 27.1579,19.3338 20.8246,19.5005 14.5,20C 12.6769,20.9973 11.0103,22.1639 9.5,23.5C 9.63101,22.7611 9.46434,22.0944 9,21.5C 7.52951,22.2666 6.02951,22.9332 4.5,23.5C 5.68362,20.1514 8.01695,17.9847 11.5,17C 32.8315,17.1142 54.1649,17.1142 75.5,17C 76.9999,15.8855 78.6666,15.0521 80.5,14.5C 83.9611,14.7675 86.9611,15.7675 89.5,17.5 Z"/></g>
<g><path style="opacity:1" fill="#00215e" d="M 146.5,25.5 C 146.5,27.8333 146.5,30.1667 146.5,32.5C 132.833,32.5 119.167,32.5 105.5,32.5C 84.0064,31.5027 62.3398,31.1693 40.5,31.5C 40.5,29.8333 40.5,28.1667 40.5,26.5C 42.3904,26.7035 43.8904,26.0368 45,24.5C 48.3608,24.756 52.0275,24.756 56,24.5C 57.4728,24.9031 58.8061,25.5697 60,26.5C 88.8928,26.7548 117.726,26.4214 146.5,25.5 Z"/></g>
<g><path style="opacity:1" fill="#455980" d="M 105.5,32.5 C 119.167,32.5 132.833,32.5 146.5,32.5C 146.5,33.5 146.5,34.5 146.5,35.5C 144.833,35.5 143.167,35.5 141.5,35.5C 117.994,35.8309 94.6607,35.4975 71.5,34.5C 82.8382,34.6665 94.1716,34.4999 105.5,34C 26.8362,33.1667 26.8362,32.6667 105.5,32.5 Z"/></g>
<g><path style="opacity:1" fill="#dddee1" d="M 71.5,34.5 C 94.6607,35.4975 117.994,35.8309 141.5,35.5C 141.767,41.8376 142.1,48.171 142.5,54.5C 108.164,54.3924 73.8306,54.0591 39.5,53.5C 39.5,47.5 39.5,41.5 39.5,35.5C 49.9869,34.5056 60.6536,34.1722 71.5,34.5 Z"/></g>
<g><path style="opacity:1" fill="#8c9299" d="M 35.5,34.5 C 36.4936,43.6517 36.8269,52.985 36.5,62.5C 35.1936,59.8582 34.1936,57.0249 33.5,54C 35.4343,47.7887 36.101,41.2887 35.5,34.5 Z"/></g>
<g><path style="opacity:1" fill="#f0d3b3" d="M 143.5,20.5 C 152.657,19.3424 161.991,19.1757 171.5,20C 177.837,22.8361 181.67,27.6695 183,34.5C 183.5,86.8323 183.667,139.166 183.5,191.5C 180.167,191.5 176.833,191.5 173.5,191.5C 173.5,183.167 173.5,174.833 173.5,166.5C 173.5,166.167 173.5,165.833 173.5,165.5C 173.5,161.167 173.5,156.833 173.5,152.5C 173.5,152.167 173.5,151.833 173.5,151.5C 173.5,142.5 173.5,133.5 173.5,124.5C 173.5,124.167 173.5,123.833 173.5,123.5C 173.5,119.5 173.5,115.5 173.5,111.5C 173.5,111.167 173.5,110.833 173.5,110.5C 173.5,106.167 173.5,101.833 173.5,97.5C 173.5,97.1667 173.5,96.8333 173.5,96.5C 173.5,92.1667 173.5,87.8333 173.5,83.5C 174.472,74.25 174.805,64.9167 174.5,55.5C 174.5,48.8333 174.5,42.1667 174.5,35.5C 167.5,35.5 160.5,35.5 153.5,35.5C 152.685,34.1634 151.518,33.1634 150,32.5C 149.802,30.6183 149.302,28.9516 148.5,27.5C 148.125,25.3024 147.458,23.3024 146.5,21.5C 145.791,20.596 144.791,20.2627 143.5,20.5 Z"/></g>
<g><path style="opacity:1" fill="#b9926a" d="M 33.5,19.5 C 50.8333,19.5 68.1667,19.5 85.5,19.5C 85.5,19.8333 85.5,20.1667 85.5,20.5C 70.1294,19.8497 55.1294,20.5163 40.5,22.5C 37.9653,26.2361 35.9653,30.2361 34.5,34.5C 31.1667,34.5 27.8333,34.5 24.5,34.5C 20.7016,33.5166 16.7016,33.1832 12.5,33.5C 11.5041,33.4142 10.6708,33.7476 10,34.5C 9.50001,86.8323 9.33334,139.166 9.5,191.5C 9.16667,191.5 8.83333,191.5 8.5,191.5C 8.5,138.5 8.5,85.5 8.5,32.5C 15.175,32.6663 21.8417,32.4996 28.5,32C 32.108,28.3494 33.7747,24.1828 33.5,19.5 Z"/></g>
<g><path style="opacity:1" fill="#133162" d="M 42.5,21.5 C 74.7227,23.1704 107.223,24.1704 140,24.5C 142.64,22.9003 144.807,23.2336 146.5,25.5C 117.726,26.4214 88.8928,26.7548 60,26.5C 58.8061,25.5697 57.4728,24.9031 56,24.5C 52.0275,24.756 48.3608,24.756 45,24.5C 43.8904,26.0368 42.3904,26.7035 40.5,26.5C 40.5,28.1667 40.5,29.8333 40.5,31.5C 62.3398,31.1693 84.0064,31.5027 105.5,32.5C 26.8362,32.6667 26.8362,33.1667 105.5,34C 94.1716,34.4999 82.8382,34.6665 71.5,34.5C 60.6536,34.1722 49.9869,34.5056 39.5,35.5C 37.4014,42.6707 37.068,50.004 38.5,57.5C 38.1201,59.698 38.7868,61.3646 40.5,62.5C 41.6808,64.0672 43.3474,64.9005 45.5,65C 58.5169,65.2883 71.5169,65.7883 84.5,66.5C 89.3165,67.3261 94.3165,67.8261 99.5,68C 99.0426,68.414 98.7093,68.914 98.5,69.5C 92.8722,70.4954 87.2055,70.8288 81.5,70.5C 68.8536,69.7682 56.187,69.2682 43.5,69C 39.9853,67.9817 37.652,65.8151 36.5,62.5C 36.8269,52.985 36.4936,43.6517 35.5,34.5C 35.1667,34.5 34.8333,34.5 34.5,34.5C 35.9653,30.2361 37.9653,26.2361 40.5,22.5C 41.1667,22.1667 41.8333,21.8333 42.5,21.5 Z"/></g>
<g><path style="opacity:1" fill="#384c73" d="M 148.5,27.5 C 149.302,28.9516 149.802,30.6183 150,32.5C 151.518,33.1634 152.685,34.1634 153.5,35.5C 152.5,35.5 151.5,35.5 150.5,35.5C 151.085,45.6474 150.252,55.6474 148,65.5C 147.617,66.056 147.117,66.3893 146.5,66.5C 133.989,66.1714 121.655,66.5048 109.5,67.5C 105.686,67.3662 102.686,68.6995 100.5,71.5C 93.9779,71.8235 87.6446,71.4902 81.5,70.5C 87.2055,70.8288 92.8722,70.4954 98.5,69.5C 98.7093,68.914 99.0426,68.414 99.5,68C 94.3165,67.8261 89.3165,67.3261 84.5,66.5C 104.194,66.2444 123.86,65.5777 143.5,64.5C 144.167,64.1667 144.833,63.8333 145.5,63.5C 147.314,54.2818 147.98,44.9485 147.5,35.5C 148.473,33.0521 148.806,30.3854 148.5,27.5 Z"/></g>
<g><path style="opacity:1" fill="#e2e3e5" d="M 174.5,55.5 C 174.805,64.9167 174.472,74.25 173.5,83.5C 142.826,83.1668 112.159,83.5002 81.5,84.5C 82.3052,86.4717 83.6385,87.9717 85.5,89C 85,89.5 84.5,90 84,90.5C 81.9287,89.6361 80.262,88.3028 79,86.5C 77.3149,88.0175 75.8149,89.6841 74.5,91.5C 72.9309,90.286 72.0976,88.6193 72,86.5C 70.887,87.7604 70.7203,88.927 71.5,90C 69.0742,91.1447 66.7409,92.478 64.5,94C 67.9484,93.2392 71.1151,93.4059 74,94.5C 75.0105,94.1081 75.5105,93.4415 75.5,92.5C 76.548,93.548 77.548,94.548 78.5,95.5C 56.8351,95.0715 35.1685,94.7382 13.5,94.5C 13.5,85.5 13.5,76.5 13.5,67.5C 24.0981,67.1033 34.4314,68.27 44.5,71C 46.8333,72.5 49.1667,74 51.5,75.5C 54.2582,75.6188 57.0916,75.2855 60,74.5C 61.3333,75.1667 62.6667,75.8333 64,76.5C 64.6914,74.1088 65.6914,74.1088 67,76.5C 67.3333,75.8333 67.6667,75.1667 68,74.5C 70.2119,75.6502 72.3786,76.6502 74.5,77.5C 77.1667,77.1667 79.8333,76.8333 82.5,76.5C 83.1924,77.0253 83.6924,77.6919 84,78.5C 88.112,75.8947 92.4453,75.228 97,76.5C 98.3333,73.8333 99.6667,73.8333 101,76.5C 105.182,74.8925 109.515,73.5592 114,72.5C 120.829,72.4538 127.329,72.7871 133.5,73.5C 137.462,73.1083 141.128,71.9416 144.5,70C 154.167,69.6667 163.833,69.3333 173.5,69C 165.5,68.6667 157.5,68.3333 149.5,68C 151.919,64.5776 153.252,60.7443 153.5,56.5C 160.588,56.7955 167.588,56.4621 174.5,55.5 Z"/></g>
<g><path style="opacity:1" fill="#dadcde" d="M 24.5,34.5 C 27.8333,34.5 31.1667,34.5 34.5,34.5C 34.8333,34.5 35.1667,34.5 35.5,34.5C 36.101,41.2887 35.4343,47.7887 33.5,54C 34.1936,57.0249 35.1936,59.8582 36.5,62.5C 37.652,65.8151 39.9853,67.9817 43.5,69C 56.187,69.2682 68.8536,69.7682 81.5,70.5C 87.6446,71.4902 93.9779,71.8235 100.5,71.5C 112.982,70.9131 125.316,70.2464 137.5,69.5C 141.155,70.075 144.155,69.075 146.5,66.5C 147.117,66.3893 147.617,66.056 148,65.5C 150.252,55.6474 151.085,45.6474 150.5,35.5C 151.5,35.5 152.5,35.5 153.5,35.5C 160.5,35.5 167.5,35.5 174.5,35.5C 174.5,42.1667 174.5,48.8333 174.5,55.5C 167.588,56.4621 160.588,56.7955 153.5,56.5C 153.252,60.7443 151.919,64.5776 149.5,68C 157.5,68.3333 165.5,68.6667 173.5,69C 163.833,69.3333 154.167,69.6667 144.5,70C 141.128,71.9416 137.462,73.1083 133.5,73.5C 127.329,72.7871 120.829,72.4538 114,72.5C 109.515,73.5592 105.182,74.8925 101,76.5C 99.6667,73.8333 98.3333,73.8333 97,76.5C 92.4453,75.228 88.112,75.8947 84,78.5C 83.6924,77.6919 83.1924,77.0253 82.5,76.5C 79.8333,76.8333 77.1667,77.1667 74.5,77.5C 72.3786,76.6502 70.2119,75.6502 68,74.5C 67.6667,75.1667 67.3333,75.8333 67,76.5C 65.6914,74.1088 64.6914,74.1088 64,76.5C 62.6667,75.8333 61.3333,75.1667 60,74.5C 57.0916,75.2855 54.2582,75.6188 51.5,75.5C 49.1667,74 46.8333,72.5 44.5,71C 34.4314,68.27 24.0981,67.1033 13.5,67.5C 13.5,56.5 13.5,45.5 13.5,34.5C 17.1667,34.5 20.8333,34.5 24.5,34.5 Z"/></g>
<g><path style="opacity:1" fill="#687a9b" d="M 109.5,67.5 C 118.44,69.4722 127.773,70.1389 137.5,69.5C 125.316,70.2464 112.982,70.9131 100.5,71.5C 102.686,68.6995 105.686,67.3662 109.5,67.5 Z"/></g>
<g><path style="opacity:1" fill="#063069" d="M 146.5,66.5 C 144.155,69.075 141.155,70.075 137.5,69.5C 127.773,70.1389 118.44,69.4722 109.5,67.5C 121.655,66.5048 133.989,66.1714 146.5,66.5 Z"/></g>
<g><path style="opacity:1" fill="#c0c3c6" d="M 141.5,35.5 C 143.167,35.5 144.833,35.5 146.5,35.5C 146.833,35.5 147.167,35.5 147.5,35.5C 147.98,44.9485 147.314,54.2818 145.5,63.5C 144.833,63.8333 144.167,64.1667 143.5,64.5C 123.86,65.5777 104.194,66.2444 84.5,66.5C 71.5169,65.7883 58.5169,65.2883 45.5,65C 43.3474,64.9005 41.6808,64.0672 40.5,62.5C 38.7868,61.3646 38.1201,59.698 38.5,57.5C 39.4345,56.4324 39.7678,55.099 39.5,53.5C 73.8306,54.0591 108.164,54.3924 142.5,54.5C 142.1,48.171 141.767,41.8376 141.5,35.5 Z"/></g>
<g><path style="opacity:1" fill="#dee0e2" d="M 40.5,62.5 C 40.5,59.8333 40.5,57.1667 40.5,54.5C 74.4915,55.3759 108.492,55.7092 142.5,55.5C 142.007,57.8056 141.674,60.139 141.5,62.5C 107.863,63.0587 74.1966,63.0587 40.5,62.5 Z"/></g>
<g><path style="opacity:1" fill="#7082a3" d="M 39.5,35.5 C 39.5,41.5 39.5,47.5 39.5,53.5C 39.7678,55.099 39.4345,56.4324 38.5,57.5C 37.068,50.004 37.4014,42.6707 39.5,35.5 Z"/></g>
<g><path style="opacity:1" fill="#ac865c" d="M 12.5,33.5 C 12.5,68.1667 12.5,102.833 12.5,137.5C 12.5,155.5 12.5,173.5 12.5,191.5C 11.5,191.5 10.5,191.5 9.5,191.5C 9.33334,139.166 9.50001,86.8323 10,34.5C 10.6708,33.7476 11.5041,33.4142 12.5,33.5 Z"/></g>
<g><path style="opacity:1" fill="#e6e7e9" d="M 173.5,83.5 C 173.5,87.8333 173.5,92.1667 173.5,96.5C 141.834,96.1 110.168,95.7667 78.5,95.5C 77.548,94.548 76.548,93.548 75.5,92.5C 75.5105,93.4415 75.0105,94.1081 74,94.5C 71.1151,93.4059 67.9484,93.2392 64.5,94C 66.7409,92.478 69.0742,91.1447 71.5,90C 70.7203,88.927 70.887,87.7604 72,86.5C 72.0976,88.6193 72.9309,90.286 74.5,91.5C 75.8149,89.6841 77.3149,88.0175 79,86.5C 80.262,88.3028 81.9287,89.6361 84,90.5C 84.5,90 85,89.5 85.5,89C 83.6385,87.9717 82.3052,86.4717 81.5,84.5C 112.159,83.5002 142.826,83.1668 173.5,83.5 Z"/></g>
<g><path style="opacity:1" fill="#c6c6c5" d="M 13.5,95.5 C 13.5,95.1667 13.5,94.8333 13.5,94.5C 35.1685,94.7382 56.8351,95.0715 78.5,95.5C 110.168,95.7667 141.834,96.1 173.5,96.5C 173.5,96.8333 173.5,97.1667 173.5,97.5C 120.156,97.2036 66.8231,96.5369 13.5,95.5 Z"/></g>
<g><path style="opacity:1" fill="#e6e7e8" d="M 13.5,95.5 C 66.8231,96.5369 120.156,97.2036 173.5,97.5C 173.5,101.833 173.5,106.167 173.5,110.5C 120.176,109.313 66.8428,108.646 13.5,108.5C 13.5,104.167 13.5,99.8333 13.5,95.5 Z"/></g>
<g><path style="opacity:1" fill="#c4b3a2" d="M 12.5,33.5 C 16.7016,33.1832 20.7016,33.5166 24.5,34.5C 20.8333,34.5 17.1667,34.5 13.5,34.5C 13.5,45.5 13.5,56.5 13.5,67.5C 13.5,76.5 13.5,85.5 13.5,94.5C 13.5,94.8333 13.5,95.1667 13.5,95.5C 13.5,99.8333 13.5,104.167 13.5,108.5C 13.5,108.833 13.5,109.167 13.5,109.5C 13.5,118.5 13.5,127.5 13.5,136.5C 26.5,136.5 39.5,136.5 52.5,136.5C 52.5,133.5 52.5,130.5 52.5,127.5C 53.4794,130.625 53.8128,133.958 53.5,137.5C 40.1667,137.5 26.8333,137.5 13.5,137.5C 13.1667,137.5 12.8333,137.5 12.5,137.5C 12.5,102.833 12.5,68.1667 12.5,33.5 Z"/></g>
<g><path style="opacity:1" fill="#c8c8c6" d="M 13.5,109.5 C 13.5,109.167 13.5,108.833 13.5,108.5C 66.8428,108.646 120.176,109.313 173.5,110.5C 173.5,110.833 173.5,111.167 173.5,111.5C 120.173,110.414 66.8398,109.748 13.5,109.5 Z"/></g>
<g><path style="opacity:1" fill="#e3e4e6" d="M 13.5,109.5 C 66.8398,109.748 120.173,110.414 173.5,111.5C 173.5,115.5 173.5,119.5 173.5,123.5C 155.5,123.5 137.5,123.5 119.5,123.5C 117.164,121.609 114.498,121.109 111.5,122C 109.548,124.074 107.715,126.241 106,128.5C 102.935,125.051 99.1021,123.384 94.5,123.5C 94.8134,120.753 94.48,118.086 93.5,115.5C 93.249,120.227 91.5823,124.227 88.5,127.5C 89.868,128.594 91.0347,128.26 92,126.5C 92.4988,130.486 92.6655,134.486 92.5,138.5C 86.8333,138.5 81.1667,138.5 75.5,138.5C 75.6495,139.552 75.4828,140.552 75,141.5C 74.2086,140.255 73.7086,138.922 73.5,137.5C 75.1482,132.978 75.6482,128.312 75,123.5C 73.2741,119.551 70.4408,118.218 66.5,119.5C 63.8866,124.993 62.8866,130.659 63.5,136.5C 60.8333,136.5 58.1667,136.5 55.5,136.5C 55.5,132.167 55.5,127.833 55.5,123.5C 57.6089,122.609 59.6089,121.442 61.5,120C 55.8289,119.482 50.9956,121.315 47,125.5C 46.3123,126.332 46.479,126.998 47.5,127.5C 48.8333,126.833 50.1667,126.167 51.5,125.5C 52.2975,125.957 52.6309,126.624 52.5,127.5C 52.5,130.5 52.5,133.5 52.5,136.5C 39.5,136.5 26.5,136.5 13.5,136.5C 13.5,127.5 13.5,118.5 13.5,109.5 Z"/></g>
<g><path style="opacity:1" fill="#4a4546" d="M 55.5,123.5 C 54.5076,131.316 54.1743,139.316 54.5,147.5C 53.5206,144.375 53.1872,141.042 53.5,137.5C 53.8128,133.958 53.4794,130.625 52.5,127.5C 52.6309,126.624 52.2975,125.957 51.5,125.5C 50.1667,126.167 48.8333,126.833 47.5,127.5C 46.479,126.998 46.3123,126.332 47,125.5C 50.9956,121.315 55.8289,119.482 61.5,120C 59.6089,121.442 57.6089,122.609 55.5,123.5 Z"/></g>
<g><path style="opacity:1" fill="#c6c6c6" d="M 119.5,123.5 C 137.5,123.5 155.5,123.5 173.5,123.5C 173.5,123.833 173.5,124.167 173.5,124.5C 158.5,124.5 143.5,124.5 128.5,124.5C 128.5,125.5 128.5,126.5 128.5,127.5C 126.071,127.116 123.737,126.449 121.5,125.5C 121.5,129.167 121.5,132.833 121.5,136.5C 123.06,136.481 124.56,136.148 126,135.5C 136.355,137.258 146.855,138.091 157.5,138C 147.299,138.202 137.133,138.702 127,139.5C 124.566,138.678 122.066,138.344 119.5,138.5C 120.833,133.5 120.833,128.5 119.5,123.5 Z"/></g>
<g><path style="opacity:1" fill="#5a585a" d="M 119.5,123.5 C 120.833,128.5 120.833,133.5 119.5,138.5C 115.21,143.195 110.71,143.528 106,139.5C 103.172,143.175 99.6725,145.842 95.5,147.5C 94.7321,148.263 94.2321,149.263 94,150.5C 93.79,148.942 93.29,147.609 92.5,146.5C 92.5,143.833 92.5,141.167 92.5,138.5C 92.6655,134.486 92.4988,130.486 92,126.5C 91.0347,128.26 89.868,128.594 88.5,127.5C 91.5823,124.227 93.249,120.227 93.5,115.5C 94.48,118.086 94.8134,120.753 94.5,123.5C 99.1021,123.384 102.935,125.051 106,128.5C 107.715,126.241 109.548,124.074 111.5,122C 114.498,121.109 117.164,121.609 119.5,123.5 Z"/></g>
<g><path style="opacity:1" fill="#dfe0e2" d="M 111.5,124.5 C 113.527,124.338 115.527,124.505 117.5,125C 118.968,129.291 118.635,133.458 116.5,137.5C 108.676,140.854 105.842,138.188 108,129.5C 108.997,127.677 110.164,126.01 111.5,124.5 Z"/></g>
<g><path style="opacity:1" fill="#985204" d="M 9.5,23.5 C 7.15278,26.8611 5.31945,30.5277 4,34.5C 3.64206,86.836 3.14206,139.169 2.5,191.5C 1.5,191.5 0.5,191.5 -0.5,191.5C -0.5,137.833 -0.5,84.1667 -0.5,30.5C 0.749245,27.9097 2.41591,25.5764 4.5,23.5C 6.02951,22.9332 7.52951,22.2666 9,21.5C 9.46434,22.0944 9.63101,22.7611 9.5,23.5 Z"/></g>
<g><path style="opacity:1" fill="#535052" d="M 73.5,137.5 C 70.1667,144.167 66.8333,144.167 63.5,137.5C 63.5,137.167 63.5,136.833 63.5,136.5C 62.8866,130.659 63.8866,124.993 66.5,119.5C 70.4408,118.218 73.2741,119.551 75,123.5C 75.6482,128.312 75.1482,132.978 73.5,137.5 Z"/></g>
<g><path style="opacity:1" fill="#d4d5d7" d="M 67.5,121.5 C 71.5803,121.081 73.5803,122.914 73.5,127C 72.6946,131.598 71.0279,135.764 68.5,139.5C 66.2644,137.531 64.9311,135.031 64.5,132C 65.1183,128.356 66.1183,124.856 67.5,121.5 Z"/></g>
<g><path style="opacity:1" fill="#d5d6d7" d="M 94.5,125.5 C 106.609,127.534 108.609,133.034 100.5,142C 98.7834,143.559 96.7834,144.392 94.5,144.5C 94.5,138.167 94.5,131.833 94.5,125.5 Z"/></g>
<g><path style="opacity:1" fill="#e4e5e7" d="M 13.5,137.5 C 26.8333,137.5 40.1667,137.5 53.5,137.5C 53.1872,141.042 53.5206,144.375 54.5,147.5C 55.4794,144.375 55.8128,141.042 55.5,137.5C 58.1667,137.5 60.8333,137.5 63.5,137.5C 66.8333,144.167 70.1667,144.167 73.5,137.5C 73.7086,138.922 74.2086,140.255 75,141.5C 75.4828,140.552 75.6495,139.552 75.5,138.5C 81.1667,138.5 86.8333,138.5 92.5,138.5C 92.5,141.167 92.5,143.833 92.5,146.5C 92.5,147.833 92.5,149.167 92.5,150.5C 66.1667,150.5 39.8333,150.5 13.5,150.5C 13.5,146.167 13.5,141.833 13.5,137.5 Z"/></g>
<g><path style="opacity:1" fill="#e4e5e7" d="M 173.5,124.5 C 173.5,133.5 173.5,142.5 173.5,151.5C 147.499,151.232 121.499,150.898 95.5,150.5C 95.5,149.5 95.5,148.5 95.5,147.5C 99.6725,145.842 103.172,143.175 106,139.5C 110.71,143.528 115.21,143.195 119.5,138.5C 122.066,138.344 124.566,138.678 127,139.5C 137.133,138.702 147.299,138.202 157.5,138C 146.855,138.091 136.355,137.258 126,135.5C 124.56,136.148 123.06,136.481 121.5,136.5C 121.5,132.833 121.5,129.167 121.5,125.5C 123.737,126.449 126.071,127.116 128.5,127.5C 128.5,126.5 128.5,125.5 128.5,124.5C 143.5,124.5 158.5,124.5 173.5,124.5 Z"/></g>
<g><path style="opacity:1" fill="#908f90" d="M 55.5,123.5 C 55.5,127.833 55.5,132.167 55.5,136.5C 58.1667,136.5 60.8333,136.5 63.5,136.5C 63.5,136.833 63.5,137.167 63.5,137.5C 60.8333,137.5 58.1667,137.5 55.5,137.5C 55.8128,141.042 55.4794,144.375 54.5,147.5C 54.1743,139.316 54.5076,131.316 55.5,123.5 Z"/></g>
<g><path style="opacity:1" fill="#e4e5e7" d="M 129.5,152.5 C 120.143,152.168 110.81,152.502 101.5,153.5C 101.023,154.478 100.357,155.311 99.5,156C 99.8333,156.333 100.167,156.667 100.5,157C 98.9559,157.29 97.6226,157.956 96.5,159C 98.1922,160.401 98.8588,162.234 98.5,164.5C 70.1667,164.5 41.8333,164.5 13.5,164.5C 13.5,160.167 13.5,155.833 13.5,151.5C 52.3369,151.168 91.0036,151.501 129.5,152.5 Z"/></g>
<g><path style="opacity:1" fill="#e5e6e7" d="M 129.5,152.5 C 144.167,152.5 158.833,152.5 173.5,152.5C 173.5,156.833 173.5,161.167 173.5,165.5C 148.491,165.638 123.491,165.304 98.5,164.5C 98.8588,162.234 98.1922,160.401 96.5,159C 97.6226,157.956 98.9559,157.29 100.5,157C 100.167,156.667 99.8333,156.333 99.5,156C 100.357,155.311 101.023,154.478 101.5,153.5C 110.81,152.502 120.143,152.168 129.5,152.5 Z"/></g>
<g><path style="opacity:1" fill="#e2bf97" d="M 33.5,19.5 C 33.7747,24.1828 32.108,28.3494 28.5,32C 21.8417,32.4996 15.175,32.6663 8.5,32.5C 8.5,85.5 8.5,138.5 8.5,191.5C 6.5,191.5 4.5,191.5 2.5,191.5C 3.14206,139.169 3.64206,86.836 4,34.5C 5.31945,30.5277 7.15278,26.8611 9.5,23.5C 11.0103,22.1639 12.6769,20.9973 14.5,20C 20.8246,19.5005 27.1579,19.3338 33.5,19.5 Z"/></g>
<g><path style="opacity:1" fill="#e4e5e7" d="M 157.5,166.5 C 158.895,167.648 158.728,168.648 157,169.5C 156.282,168.549 155.449,168.383 154.5,169C 155.673,172.11 155.173,172.277 153,169.5C 153.43,171.127 153.596,172.627 153.5,174C 150.302,174.922 147.968,176.088 146.5,177.5C 145.006,177.291 143.839,176.624 143,175.5C 142.517,176.448 142.351,177.448 142.5,178.5C 139.167,178.5 135.833,178.5 132.5,178.5C 92.8333,178.5 53.1667,178.5 13.5,178.5C 13.5,174.167 13.5,169.833 13.5,165.5C 61.5028,165.511 109.503,165.844 157.5,166.5 Z"/></g>
<g><path style="opacity:1" fill="#c1c0bf" d="M 12.5,137.5 C 12.8333,137.5 13.1667,137.5 13.5,137.5C 13.5,141.833 13.5,146.167 13.5,150.5C 39.8333,150.5 66.1667,150.5 92.5,150.5C 92.5,149.167 92.5,147.833 92.5,146.5C 93.29,147.609 93.79,148.942 94,150.5C 94.2321,149.263 94.7321,148.263 95.5,147.5C 95.5,148.5 95.5,149.5 95.5,150.5C 121.499,150.898 147.499,151.232 173.5,151.5C 173.5,151.833 173.5,152.167 173.5,152.5C 158.833,152.5 144.167,152.5 129.5,152.5C 91.0036,151.501 52.3369,151.168 13.5,151.5C 13.5,155.833 13.5,160.167 13.5,164.5C 41.8333,164.5 70.1667,164.5 98.5,164.5C 123.491,165.304 148.491,165.638 173.5,165.5C 173.5,165.833 173.5,166.167 173.5,166.5C 168.167,166.5 162.833,166.5 157.5,166.5C 109.503,165.844 61.5028,165.511 13.5,165.5C 13.5,169.833 13.5,174.167 13.5,178.5C 53.1667,178.5 92.8333,178.5 132.5,178.5C 93.0035,179.499 53.3368,179.832 13.5,179.5C 13.5,183.5 13.5,187.5 13.5,191.5C 13.1667,191.5 12.8333,191.5 12.5,191.5C 12.5,173.5 12.5,155.5 12.5,137.5 Z"/></g>
<g><path style="opacity:1" fill="#e3e4e6" d="M 157.5,166.5 C 162.833,166.5 168.167,166.5 173.5,166.5C 173.5,174.833 173.5,183.167 173.5,191.5C 120.167,191.5 66.8333,191.5 13.5,191.5C 13.5,187.5 13.5,183.5 13.5,179.5C 53.3368,179.832 93.0035,179.499 132.5,178.5C 135.833,178.5 139.167,178.5 142.5,178.5C 142.351,177.448 142.517,176.448 143,175.5C 143.839,176.624 145.006,177.291 146.5,177.5C 147.968,176.088 150.302,174.922 153.5,174C 153.596,172.627 153.43,171.127 153,169.5C 155.173,172.277 155.673,172.11 154.5,169C 155.449,168.383 156.282,168.549 157,169.5C 158.728,168.648 158.895,167.648 157.5,166.5 Z"/></g>
</svg>
